<svg width="67" height="52" viewBox="0 0 67 52" fill="none" xmlns="http://www.w3.org/2000/svg">
<g clip-path="url(#clip0_143_196)">
<path d="M39.0076 48.5401V45.4597C39.0076 44.2843 41.6649 44.2843 41.6649 45.4597V48.5401C43.8317 48.2969 45.8758 47.9321 47.92 47.2026C50.6182 46.2704 53.2756 44.7302 55.3606 42.8252C54.5429 42.0957 51.8447 39.7854 53.8888 38.8937C55.3606 38.2452 56.26 40.1502 57.2821 40.9203C59.8577 38.2452 61.6974 34.5974 62.4742 30.9902C62.7195 29.7742 62.8421 28.5583 63.0465 27.3424H59.9394C58.7539 27.3424 58.7539 24.7079 59.9394 24.7079H62.883C62.7603 19.7631 60.6753 14.6967 57.2821 11.13C56.26 11.9001 55.3606 13.805 53.8888 13.1565C51.8447 12.2648 54.5021 9.95456 55.3606 9.22501C52.6623 6.67155 48.9829 4.84766 45.3444 4.07757C44.1179 3.83438 42.8914 3.71279 41.6649 3.51013V6.59049C41.6649 7.76589 39.0076 7.76589 39.0076 6.59049V3.51013C36.5955 3.75332 34.3878 4.23969 32.0984 5.05031C30.9946 5.45562 28.9504 6.95527 28.1328 5.57721C27.3151 4.19916 28.6643 3.63172 29.6863 3.14535C46.0394 -4.71767 65.1315 7.56323 65.7448 25.3158C66.358 43.0684 46.6117 56.93 29.6863 48.9859C28.6643 48.4996 27.356 47.9727 28.1328 46.5541C28.9096 45.1355 30.9946 46.6757 32.0984 47.081C34.347 47.8916 36.5955 48.4185 39.0076 48.6212V48.5401Z" fill="white"/>
<path d="M50.3319 14.413C51.4766 14.1698 52.3352 15.102 51.9672 16.1963L45.099 23.1677C45.099 23.1677 45.6304 24.7889 45.6713 25.2347C46.0801 29.0041 43.1366 31.5576 39.4572 31.0712C38.9257 30.9902 38.108 30.5443 37.781 30.5848C37.0451 30.6659 36.4319 32.6114 34.9192 31.7602C33.4883 30.9496 34.8374 29.3689 35.6551 28.6799C33.6927 24.5052 36.391 20.371 41.1334 20.8169C41.7057 20.8574 42.8504 21.3843 43.2184 21.2222L50.3728 14.3724L50.3319 14.413ZM39.6207 23.5324C37.0042 23.9783 37.0042 27.9909 39.6207 28.4367C44.1587 29.2068 44.1587 22.7624 39.6207 23.5324Z" fill="white"/>
<path d="M-0.157917 24.7079H27.0699C28.7461 24.8295 28.7461 27.1803 27.0699 27.3424H0.128262C-1.38439 27.2208 -1.62969 25.1943 -0.157917 24.7079Z" fill="white"/>
<path d="M29.7681 17.088C30.5448 17.8986 30.0134 19.2361 28.9095 19.3577H8.14117C6.46499 19.1956 6.46499 16.8448 8.14117 16.6827C14.7642 17.1691 22.2048 16.0747 28.7051 16.6827C29.0731 16.6827 29.4819 16.8043 29.7272 17.088H29.7681Z" fill="white"/>
<path d="M29.7681 33.0167C30.5448 33.8273 30.0134 35.1649 28.9095 35.2865H8.14117C6.46499 35.1243 6.46499 32.7735 8.14117 32.6114C14.7642 33.0978 22.2048 32.0034 28.7051 32.6114C29.0731 32.6114 29.4819 32.733 29.7272 33.0167H29.7681Z" fill="white"/>
<path d="M15.8682 8.77917H30.7086C32.3848 8.90077 32.4257 11.211 30.7086 11.4137C26.2115 11.9406 20.7332 11.0084 16.1544 11.4137C14.6417 11.2921 14.3964 9.26555 15.8682 8.77917Z" fill="white"/>
<path d="M15.8682 40.6366H30.7086C32.3848 40.7582 32.4257 43.0685 30.7086 43.2711C26.2115 43.798 20.7332 42.8658 16.1544 43.2711C14.6417 43.1495 14.3964 41.123 15.8682 40.6366Z" fill="white"/>
</g>
<defs>
<clipPath id="clip0_143_196">
<rect width="66.5687" height="50.5827" fill="white" transform="translate(0.0368652 0.672974)"/>
</clipPath>
</defs>
</svg>
