<svg xmlns="http://www.w3.org/2000/svg" width="102" height="102" viewBox="0 0 102 102" fill="none">
  <g clip-path="url(#clip0_379_330)">
    <path d="M14.7452 24.2338C14.0763 23.5687 9.53115 23.5838 8.49747 23.735C6.59732 24.0373 6.2781 26.5922 8.08704 27.0004C8.8471 27.1667 13.2554 27.1818 14.0307 27.0458C15.186 26.8341 15.5508 25.0502 14.7452 24.2338ZM12.0697 56.843C13.2098 55.7999 12.2674 54.0462 10.8993 53.8346C9.43994 53.6078 3.05544 53.6078 1.59613 53.8346C-0.54724 54.1672 -0.54724 57.0093 1.59613 57.3419C3.25306 57.5989 8.9383 57.5535 10.6864 57.357C11.0969 57.3117 11.7505 57.1151 12.0545 56.843H12.0697ZM10.7472 86.9275C11.5985 86.0809 11.2185 84.3423 10.0328 84.1156C9.27273 83.9795 4.80358 83.9795 4.04352 84.1156C2.4626 84.4028 2.569 87.0031 4.30194 87.381C5.15321 87.5624 8.42146 87.5322 9.36394 87.4264C9.72877 87.381 10.4888 87.1543 10.7472 86.9124V86.9275Z" fill="#004487"/>
    <path d="M22.9082 27.0458C21.5857 26.6679 21.4489 24.0374 23.3642 23.735H44.6611C50.544 21.5127 56.5332 20.1974 62.8721 20.394C63.769 20.4242 64.7115 20.8929 65.6388 20.5149L68.4966 13.2281C66.8092 12.185 64.9091 11.8222 63.769 9.97779C60.7592 5.12497 64.6355 -0.60469 70.1991 0.0302589C77.9821 3.22012 86.8748 5.71456 94.4298 9.28237C101.985 12.8502 98.4125 22.5709 91.344 21.6488C90.1887 21.4976 89.1854 20.8324 88.0757 20.6056L85.2483 28.0134C91.572 33.0627 96.6644 39.3064 99.4614 46.9711C110.33 76.9195 84.7923 106.974 53.4018 101.274C44.0075 99.5661 35.7076 94.6225 29.5359 87.4416L18.5911 87.2904C17.1165 86.6252 17.8006 84.0854 18.9255 84.0854H27.0277L23.4706 77.5545C21.6465 77.0405 15.3532 78.0836 14.1979 76.9347C13.1338 75.8764 14.1371 73.896 15.3532 73.896H22.1177L20.5824 67.35L9.40953 67.2139C7.40298 66.7604 8.20864 63.9484 9.36393 63.9484H20.3544C19.8376 58.3397 20.932 52.7008 22.5738 47.3491H3.60268C3.60268 47.3491 2.5994 46.8048 2.49299 46.6839C1.64172 45.6861 2.31058 43.9627 3.64828 43.872L24.3219 43.7813C25.2796 41.4078 26.6933 39.2761 28.1374 37.1748H17.1469C16.0829 37.1748 15.2316 34.635 16.8125 33.9698L30.6456 33.8035C32.8042 31.2939 35.6468 29.5856 38.0638 27.4994C38.2158 27.3633 38.4742 27.4994 38.3526 26.9854H22.9234L22.9082 27.0458ZM67.0525 8.60207C67.6301 9.17655 69.0134 9.61496 69.8039 9.94756C76.9484 13.0014 84.5946 15.4353 91.8304 18.3228C95.2659 18.5194 96.4212 14.1805 93.3961 12.5327L69.9103 3.41665C66.8549 2.72123 64.8787 6.44022 67.0373 8.60207H67.0525ZM82.2993 26.1539L84.7163 19.7893L84.6554 19.2753L71.6584 14.1957L69.0894 21.0592C73.7866 22.0569 78.1189 23.8862 82.3145 26.1388L82.2993 26.1539ZM58.9502 23.7804C29.8551 25.6096 13.4378 58.5967 30.4024 82.6341C45.2844 103.723 76.9332 103.723 91.8152 82.6341C109.768 57.2059 90.0975 21.8151 58.9502 23.7804Z" fill="#004487"/>
    <path d="M12.0697 56.8431C11.7657 57.1152 11.1121 57.3117 10.7016 57.3571C8.9535 57.5536 3.26826 57.599 1.61133 57.342C-0.532043 57.0094 -0.532043 54.1672 1.61133 53.8346C3.07064 53.6079 9.45514 53.6079 10.9145 53.8346C12.2826 54.0463 13.2098 55.8151 12.0849 56.8431H12.0697Z" fill="#004487"/>
    <path d="M10.7472 86.9275C10.504 87.1694 9.74397 87.3962 9.36394 87.4415C8.42146 87.5474 5.13801 87.5776 4.30194 87.3962C2.56901 87.0182 2.4626 84.418 4.04352 84.1307C4.80358 83.9947 9.27273 83.9947 10.0328 84.1307C11.2337 84.3575 11.5985 86.096 10.7472 86.9426V86.9275Z" fill="#004487"/>
    <path d="M14.7452 24.2339C15.5508 25.0502 15.1708 26.8341 14.0307 27.0458C13.2554 27.1969 8.8471 27.1667 8.08704 27.0004C6.2781 26.6074 6.59732 24.0373 8.49747 23.735C9.54635 23.5687 14.0915 23.5536 14.7452 24.2339Z" fill="#004487"/>
    <path d="M58.7222 29.9786C88.7598 27.7714 104.417 65.1276 81.6456 84.8866C64.225 100.004 36.8173 91.3268 30.8584 69.3304C25.766 50.5087 39.2495 31.3997 58.7222 29.9635V29.9786ZM69.6519 34.5593C63.617 32.6394 57.3997 32.9266 51.4408 34.9978C51.1976 35.3304 53.5234 38.747 52.0945 39.9715C49.3735 41.3926 49.039 38.626 48.2182 36.7665L47.9902 36.5549C43.5818 38.747 39.3863 42.6776 36.9237 46.9711C36.6957 47.349 35.738 49.0725 35.7076 49.3143C35.6772 49.6469 35.8292 49.6469 36.0572 49.783C37.5469 50.6447 42.3505 51.2948 42.3505 53.2601C42.3505 53.8195 41.8185 54.7114 41.2864 54.8777C39.7511 55.3312 35.9964 53.1089 34.3395 52.7159C32.5306 58.7176 32.6674 64.9613 34.7803 70.8573C35.0996 71.0991 39.8879 67.7127 40.1159 70.9782C40.268 73.0645 37.8358 73.2761 36.3309 73.9715C38.8543 79.55 43.9467 83.7981 49.3279 86.5798C50.1335 85.3553 51.1824 80.578 52.2313 79.9733C52.9914 79.5349 54.101 79.7314 54.5571 80.4873C55.4236 81.9386 52.9458 86.0507 52.5505 87.6834C58.5702 89.5882 64.8331 89.3464 70.7616 87.245C70.4271 85.8088 68.299 83.2236 70.1991 82.1503C72.5401 80.835 73.2241 84.1912 73.8778 85.6879C74.3642 86.0204 78.6358 82.9364 79.3046 82.377C82.4057 79.7465 84.8987 76.3601 86.7532 72.7621C85.4915 71.9911 80.7335 70.9328 80.1255 69.8595C79.6847 69.1036 79.8823 68 80.6423 67.5465C82.1016 66.6847 86.2212 69.2094 87.8629 69.5571C89.7174 63.646 89.5806 57.221 87.4221 51.4157C87.1636 51.2192 82.0712 54.7265 82.0712 51.0831C82.0712 49.012 84.5946 49.269 85.8563 48.1956C83.9866 44.2499 80.4143 40.4402 76.7812 38.0062C76.234 37.6283 73.1177 35.7083 72.7681 35.9502C71.8256 37.4317 71.172 42.5869 69.0894 42.5869C68.4358 42.5869 67.5541 42.0124 67.4325 41.3473C67.1741 39.9715 69.8647 34.8919 69.6519 34.6047V34.5593Z" fill="#004487"/>
    <path d="M50.3615 66.8964C49.8903 67.9395 48.9022 71.1899 47.8838 71.6132C46.4092 72.233 45.0563 70.948 45.4972 69.4513L53.341 51.3855C54.2987 49.9795 55.9556 50.5087 56.518 51.9449C58.5246 57.5989 62.0361 63.253 63.9818 68.8466C64.5291 70.434 64.225 71.9911 62.2337 71.7039C60.4855 71.4469 60.3031 67.9093 59.0718 66.8813H50.3615V66.8964ZM51.8817 63.3286H57.6581L54.8763 56.6919C54.4203 56.6012 54.5723 56.8733 54.4507 57.1303C53.493 59.141 52.7177 61.2574 51.8817 63.3286Z" fill="#004487"/>
    <path d="M71.0808 50.5994C72.2817 50.554 72.6617 51.2948 72.7681 52.3682C73.2698 58.0827 72.3577 64.5229 72.7681 70.313C72.4185 72.0818 70.2751 72.2784 69.5303 70.6456L69.4391 51.9449C69.5607 51.3099 70.4575 50.6296 71.096 50.6145L71.0808 50.5994Z" fill="#004487"/>
  </g>
  <defs>
    <clipPath id="clip0_379_330">
      <rect width="102" height="102" fill="white"/>
    </clipPath>
  </defs>
</svg>