<svg width="66" height="57" viewBox="0 0 66 57" fill="none" xmlns="http://www.w3.org/2000/svg">
<path d="M33 0.5C51.0206 0.5 65.5 13.1023 65.5 28.5C65.5 43.8977 51.0206 56.5 33 56.5C14.9794 56.5 0.5 43.8977 0.5 28.5C0.5 13.1023 14.9794 0.5 33 0.5Z" stroke="#004487"/>
<path d="M43.8197 20.7432L43.8197 34.2009C43.8197 34.4536 43.7035 34.696 43.4966 34.8746C43.2897 35.0533 43.009 35.1537 42.7164 35.1537C42.4238 35.1537 42.1432 35.0533 41.9363 34.8746C41.7294 34.696 41.6132 34.4536 41.6132 34.2009L41.6147 23.0404L24.7964 37.5653C24.5898 37.7438 24.3095 37.8441 24.0173 37.8441C23.7251 37.8441 23.4448 37.7438 23.2382 37.5653C23.0315 37.3869 22.9154 37.1448 22.9154 36.8924C22.9154 36.6401 23.0315 36.398 23.2382 36.2196L40.0565 21.6946L27.1338 21.696C26.8412 21.696 26.5606 21.5956 26.3537 21.4169C26.1468 21.2382 26.0306 20.9959 26.0306 20.7432C26.0306 20.4905 26.1468 20.2481 26.3537 20.0695C26.5606 19.8908 26.8412 19.7904 27.1338 19.7904L42.7164 19.7904C42.8614 19.7902 43.0049 19.8148 43.1389 19.8626C43.2728 19.9104 43.3945 19.9806 43.497 20.0691C43.5994 20.1576 43.6807 20.2627 43.7361 20.3784C43.7915 20.494 43.8199 20.618 43.8197 20.7432Z" fill="#004487"/>
</svg>
