<svg width="36" height="8" viewBox="0 0 36 8" fill="none" xmlns="http://www.w3.org/2000/svg">
<path d="M4.08 7.3C3.2 7.3 2.45 6.99 1.83 6.37C1.21 5.73 0.9 4.97 0.9 4.09C0.9 3.21 1.21 2.46 1.83 1.84C2.45 1.22 3.2 0.91 4.08 0.91C4.94 0.91 5.68 1.23 6.3 1.87C6.94 2.49 7.26 3.23 7.26 4.09C7.26 4.97 6.94 5.73 6.3 6.37C5.68 6.99 4.94 7.3 4.08 7.3ZM32.4277 7.3C31.5477 7.3 30.7977 6.99 30.1777 6.37C29.5577 5.73 29.2477 4.97 29.2477 4.09C29.2477 3.21 29.5577 2.46 30.1777 1.84C30.7977 1.22 31.5477 0.91 32.4277 0.91C33.2877 0.91 34.0277 1.23 34.6477 1.87C35.2877 2.49 35.6077 3.23 35.6077 4.09C35.6077 4.97 35.2877 5.73 34.6477 6.37C34.0277 6.99 33.2877 7.3 32.4277 7.3Z" fill="white" fill-opacity="0.5"/>
<path d="M18.2538 7.3C17.3738 7.3 16.6238 6.99 16.0038 6.37C15.3838 5.73 15.0738 4.97 15.0738 4.09C15.0738 3.21 15.3838 2.46 16.0038 1.84C16.6238 1.22 17.3738 0.91 18.2538 0.91C19.1138 0.91 19.8538 1.23 20.4738 1.87C21.1138 2.49 21.4338 3.23 21.4338 4.09C21.4338 4.97 21.1138 5.73 20.4738 6.37C19.8538 6.99 19.1138 7.3 18.2538 7.3Z" fill="white"/>
</svg>
