<svg xmlns="http://www.w3.org/2000/svg" width="45" height="42" viewBox="0 0 45 42" fill="none">
  <path d="M45 11.8125C45 14.9454 43.745 17.9499 41.5111 20.1652C39.2772 22.3805 36.2474 23.625 33.0882 23.625C29.929 23.625 26.8992 22.3805 24.6653 20.1652C22.4315 17.9499 21.1765 14.9454 21.1765 11.8125C21.1765 8.67963 22.4315 5.67507 24.6653 3.4598C26.8992 1.24453 29.929 0 33.0882 0C36.2474 0 39.2772 1.24453 41.5111 3.4598C43.745 5.67507 45 8.67963 45 11.8125ZM34.4118 6.5625C34.4118 6.2144 34.2723 5.88056 34.0241 5.63442C33.7759 5.38828 33.4393 5.25 33.0882 5.25C32.7372 5.25 32.4006 5.38828 32.1524 5.63442C31.9041 5.88056 31.7647 6.2144 31.7647 6.5625V10.5H27.7941C27.4431 10.5 27.1064 10.6383 26.8582 10.8844C26.61 11.1306 26.4706 11.4644 26.4706 11.8125C26.4706 12.1606 26.61 12.4944 26.8582 12.7406C27.1064 12.9867 27.4431 13.125 27.7941 13.125H31.7647V17.0625C31.7647 17.4106 31.9041 17.7444 32.1524 17.9906C32.4006 18.2367 32.7372 18.375 33.0882 18.375C33.4393 18.375 33.7759 18.2367 34.0241 17.9906C34.2723 17.7444 34.4118 17.4106 34.4118 17.0625V13.125H38.3824C38.7334 13.125 39.07 12.9867 39.3182 12.7406C39.5664 12.4944 39.7059 12.1606 39.7059 11.8125C39.7059 11.4644 39.5664 11.1306 39.3182 10.8844C39.07 10.6383 38.7334 10.5 38.3824 10.5H34.4118V6.5625ZM39.7059 35.4375V24.675C40.6489 24.1973 41.5365 23.619 42.3529 22.9504V35.4375C42.3529 37.178 41.6557 38.8472 40.4147 40.0779C39.1736 41.3086 37.4904 42 35.7353 42H6.61765C4.86254 42 3.17931 41.3086 1.93826 40.0779C0.697214 38.8472 0 37.178 0 35.4375V14.4375C0 12.697 0.697214 11.0278 1.93826 9.79711C3.17931 8.5664 4.86254 7.875 6.61765 7.875H19.0774C18.8327 8.73312 18.6688 9.61188 18.5876 10.5H6.61765C5.56458 10.5 4.55465 10.9148 3.81002 11.6533C3.06539 12.3917 2.64706 13.3932 2.64706 14.4375V15.2303L21.1765 26.04L24.9909 23.814C25.8521 24.3862 26.7724 24.8649 27.7518 25.2499L21.8488 28.6939C21.68 28.7922 21.4913 28.8521 21.2963 28.8694C21.1013 28.8866 20.9049 28.8607 20.7212 28.7936L20.5041 28.6939L2.64706 18.2779V35.4375C2.64706 36.4818 3.06539 37.4833 3.81002 38.2217C4.55465 38.9602 5.56458 39.375 6.61765 39.375H35.7353C36.7884 39.375 37.7983 38.9602 38.5429 38.2217C39.2876 37.4833 39.7059 36.4818 39.7059 35.4375Z" fill="#004487"/>
</svg>