<svg xmlns="http://www.w3.org/2000/svg" width="89" height="89" viewBox="0 0 89 89" fill="none">
  <g clip-path="url(#clip0_1_2099)">
    <path d="M74.5639 3.32481H87.6656C87.7517 3.32481 88.3975 3.93257 88.4693 4.07557C89.1437 5.4877 87.5939 8.74096 87.2782 10.2603C87.4934 11.9227 89.1007 14.8542 88.541 16.463C88.498 16.5702 87.8952 17.3389 87.8378 17.3389H74.5639V22.8086H83.6189C83.6189 22.8086 84.1498 23.2198 84.2359 23.3449C85.14 24.6498 84.0781 28.5108 84.853 30.0302H88.1966C88.2683 30.0302 89.1437 31.0848 89.0002 31.4423L88.8998 87.6237C88.3832 88.5353 87.8235 88.6604 86.9768 88.7319C77.9793 89.5184 68.2642 88.1242 59.1805 88.7319C58.176 88.7319 57.3006 87.9812 57.3293 86.6584L57.4728 30.9597C57.5302 30.7809 58.0612 30.0302 58.1329 30.0302H61.7348V24.0063C61.7348 23.756 62.4954 22.8086 62.6963 22.8086H71.7513V1.46581C71.7513 0.750803 72.4975 0.0536752 73.0715 0.0358001C75.181 -0.0714503 74.3917 3.34269 74.5639 3.34269V3.32481ZM85.2835 6.82833H74.5639V13.8354H85.2835C84.2072 11.2077 84.279 9.45597 85.2835 6.82833ZM81.7677 26.3122H64.5331V30.0302H81.7677V26.3122ZM86.1589 33.5516H60.1419V85.2463H67.2596L67.5179 84.9245V73.0912C67.5179 72.7516 68.2929 71.84 68.666 71.8936C71.4356 72.1617 74.7505 71.4825 77.4483 71.8757C78.0654 71.9651 78.9407 72.7516 78.9407 73.5202V85.2463H86.1445V33.5516H86.1589ZM76.1424 75.3792H70.3449V85.2284H75.8841L76.1424 84.9067V75.3792Z" fill="#004487"/>
    <path d="M17.2343 22.8084H26.2893C26.2893 22.8084 26.8203 23.2195 26.9064 23.3447C27.8104 24.6495 26.7485 28.5106 27.5234 30.0299H30.867C30.9388 30.0299 31.8141 31.0846 31.6706 31.4421V87.0872C31.5271 88.4993 30.6231 88.6423 29.6472 88.7317C20.664 89.5361 10.9202 88.1061 1.85089 88.7317C0.846372 88.7317 -0.0289905 87.9809 -0.000290088 86.6582L0.143212 30.9594C0.200613 30.7807 0.731571 30.0299 0.803322 30.0299H4.40522V24.006C4.40522 23.7558 5.16579 22.8084 5.36669 22.8084H14.4217V17.3386H1.33428C0.903773 17.3386 0.372815 16.2661 0.358465 15.6941C0.315415 14.1926 1.70738 11.7437 1.77914 10.421C1.83654 9.36636 0.401516 6.54209 0.358465 5.16571C0.344115 4.52221 0.817672 3.3067 1.33428 3.3067H14.436C14.2638 1.60857 14.6226 -0.572187 16.3733 0.124941C16.646 0.232192 17.2487 0.947195 17.2487 1.2332V22.8084H17.2343ZM14.4217 6.82809H3.70206C3.96037 7.72185 4.70658 9.54511 4.70658 10.4031C4.70658 11.2611 3.96037 12.9235 3.70206 13.8351H14.4217V6.82809ZM24.4525 26.3119H7.21787V30.0299H24.4525V26.3119ZM28.8436 33.5513H2.8267V84.9064L3.085 85.2282H9.9444L10.2027 84.9064V73.0731C10.2027 72.7335 10.9776 71.8219 11.3507 71.8755C14.1203 72.1436 17.4352 71.4644 20.1331 71.8576C20.7501 71.947 21.6255 72.7335 21.6255 73.5021V85.2282H28.8293V33.5335L28.8436 33.5513ZM18.8272 75.379H13.0297V85.2282H18.5689L18.8272 84.9064V75.379Z" fill="#004487"/>
    <path d="M42.8641 5.11228C43.6391 4.98715 45.5046 6.95341 46.3082 7.52541C47.7289 8.50854 49.6374 9.49167 51.259 9.67042C52.4214 9.79555 54.8466 9.0448 55.1766 10.9217C55.478 12.6556 55.478 16.0697 55.3919 17.8751C54.9757 26.902 51.2877 35.9468 44.3853 39.6469C42.6919 40.5586 42.0031 39.8793 40.5107 38.8425C32.6755 33.3907 29.9059 22.755 30.7813 11.9763C31.0539 8.61579 33.0773 9.9028 35.072 9.65255C36.22 9.50955 38.0138 8.68729 39.0613 8.04379C39.9223 7.52541 42.2901 5.21953 42.8785 5.11228H42.8641ZM33.5939 13.1739C33.2065 21.039 34.4549 28.5465 39.4918 33.7482C40.1807 34.4453 42.5197 36.5009 43.309 36.34C43.9261 36.2149 46.4517 33.9269 47.0401 33.3013C51.5891 28.3856 52.9523 20.6278 52.5075 13.3706C52.407 13.1918 50.0967 12.9773 49.5944 12.8522C47.1979 12.2444 45.0454 10.6893 43.0076 9.08055C40.2668 11.4401 37.0093 13.3169 33.5939 13.1739Z" fill="#004487"/>
    <path d="M49.9389 57.8616C50.0393 57.7723 48.877 55.9132 48.8052 55.663C48.2456 53.661 49.8384 52.2131 51.0869 53.6967C51.5031 54.1794 53.7704 58.2728 53.9426 58.9163C54.3014 60.2033 53.7847 61.0076 52.7515 61.2758C47.6716 60.9004 41.4436 62.1159 36.4927 61.3473C35.4021 61.1685 34.5842 60.1675 35.0721 58.7375C35.1151 58.6303 35.7178 57.8616 35.7752 57.8616H49.9245H49.9389Z" fill="#004487"/>
    <path d="M39.2192 67.7107C39.047 67.9074 40.2094 69.6234 40.3098 69.963C40.7834 71.536 39.5493 72.8409 38.3439 72.1974C38.0138 72.0186 35.2873 67.3354 35.1294 66.7812C34.8137 65.6194 35.029 64.672 36.0048 64.2608L52.8376 64.2251C53.8708 64.5111 54.4878 65.816 53.8134 66.96C53.7129 67.1387 53.1246 67.7286 53.0241 67.7286H39.2192V67.7107Z" fill="#004487"/>
    <path d="M65.5519 51.3373C70.2588 51.7305 75.8553 50.6401 80.4618 51.2836C82.5712 51.5875 82.7004 54.519 80.8205 54.7871H65.351C63.8442 54.4654 64.0021 51.4981 65.5519 51.3373Z" fill="#004487"/>
    <path d="M65.1928 61.6332L80.8058 61.5796C82.8436 61.8656 82.3413 65.0652 80.4471 65.0831C75.812 64.6184 70.3876 65.7087 65.8529 65.0831C63.9013 64.815 63.8726 62.0086 65.1928 61.6332Z" fill="#004487"/>
    <path d="M81.7246 41.7025C82.5282 42.7214 82.0116 44.5268 80.8062 44.7056C76.1567 45.3848 70.4454 44.1872 65.6811 44.7056C63.8012 44.4374 63.9017 41.3987 65.6811 41.1842C70.4454 41.5953 75.7693 40.6479 80.4618 41.1842C80.8349 41.2199 81.4663 41.3808 81.7246 41.7025Z" fill="#004487"/>
    <path d="M8.22267 51.3373C12.9295 51.7305 18.5261 50.6401 23.1325 51.2836C25.242 51.5875 25.3712 54.519 23.4913 54.7871H8.02177C6.52935 54.4833 6.75895 51.4981 8.22267 51.3373Z" fill="#004487"/>
    <path d="M7.86406 61.6332L23.4771 61.5796C25.5148 61.8656 25.0126 65.0652 23.1183 65.0831C18.4976 64.6005 13.0445 65.7266 8.52417 65.0831C6.55819 64.815 6.60124 61.9907 7.86406 61.6332Z" fill="#004487"/>
    <path d="M24.3955 41.7025C25.1991 42.7214 24.6825 44.5268 23.4771 44.7056C18.8276 45.3848 13.1163 44.1872 8.35199 44.7056C6.47211 44.4374 6.57256 41.3987 8.35199 41.1842C13.1163 41.5953 18.4402 40.6479 23.1327 41.1842C23.5058 41.2199 24.1372 41.3808 24.3955 41.7025Z" fill="#004487"/>
    <path d="M44.5289 14.4431C44.5289 14.4431 45.5908 15.1045 45.9065 15.462C46.8823 16.5703 48.0016 19.9308 46.3083 20.5743C44.2131 21.3608 44.7154 18.322 43.5674 17.7143C42.4911 17.1423 41.5727 18.1611 41.7449 19.5375C42.979 21.2356 45.2464 21.4501 46.4231 23.3628C47.5998 25.2754 47.3271 27.9746 46.0787 29.6548C45.7199 30.1196 44.7298 30.6558 44.5863 30.9239C44.2131 31.6211 44.4284 33.3549 43.0221 33.2656C41.3575 33.1583 41.9315 31.5317 41.6445 30.9597C41.5871 30.8346 40.2094 30.1196 39.6641 29.1543C38.9036 27.8137 38.2722 24.7392 40.2094 24.6319C41.8454 24.5425 41.4866 26.616 42.075 27.3489C42.9503 28.4572 44.6437 27.3847 44.2849 25.8117C43.9979 24.5604 39.9942 23.7203 39.1332 20.8245C38.4587 18.5544 39.1906 16.6596 40.5395 15.1402C40.7978 14.8542 41.4723 14.4967 41.5871 14.2465C41.7449 13.9247 41.6732 13.4064 41.8167 12.9952C42.3046 11.601 43.9261 11.9049 44.371 13.2097C44.5145 13.6387 44.4428 14.2465 44.5289 14.4252V14.4431Z" fill="#004487"/>
  </g>
  <defs>
    <clipPath id="clip0_1_2099">
      <rect width="89" height="89" fill="white"/>
    </clipPath>
  </defs>
</svg>