<svg xmlns="http://www.w3.org/2000/svg" width="70" height="70" viewBox="0 0 70 70" fill="none">
  <path d="M10.1252 16.6408C9.66624 16.1844 6.5476 16.1948 5.83834 16.2985C4.53456 16.506 4.31552 18.259 5.55672 18.5391C6.07823 18.6532 9.10301 18.6636 9.63495 18.5702C10.4277 18.425 10.678 17.201 10.1252 16.6408ZM8.28945 39.0155C9.07172 38.2998 8.42504 37.0965 7.48632 36.9513C6.48501 36.7957 2.1043 36.7957 1.103 36.9513C-0.367667 37.1795 -0.367667 39.1296 1.103 39.3578C2.2399 39.5342 6.14082 39.5031 7.34029 39.3682C7.62191 39.3371 8.07041 39.2022 8.27902 39.0155H8.28945ZM7.38202 59.6579C7.96611 59.077 7.70535 57.8841 6.89179 57.7285C6.37028 57.6352 3.30378 57.6352 2.78227 57.7285C1.69752 57.9256 1.77054 59.7098 2.95959 59.9691C3.54368 60.0936 5.78619 60.0728 6.43286 60.0002C6.68319 59.9691 7.2047 59.8135 7.38202 59.6475V59.6579Z" fill="#009588"/>
  <path d="M15.7258 18.5699C14.8184 18.3106 14.7245 16.5057 16.0387 16.2982H30.6515C34.688 14.7734 38.7975 13.8709 43.1469 14.0058C43.7623 14.0265 44.409 14.3481 45.0452 14.0887L47.0061 9.08892C45.8484 8.37318 44.5446 8.12423 43.7623 6.85872C41.6971 3.52896 44.3568 -0.402426 48.1743 0.033242C53.5146 2.22196 59.6163 3.93351 64.8002 6.38156C69.984 8.8296 67.5329 15.4995 62.6828 14.8667C61.8901 14.763 61.2017 14.3066 60.4403 14.151L58.5003 19.2338C62.8393 22.6984 66.3334 26.9825 68.2526 32.2416C75.7102 52.7906 58.1874 73.4123 36.6489 69.5016C30.203 68.3295 24.5081 64.9375 20.2734 60.0103L12.7636 59.9066C11.7519 59.4501 12.2212 57.7075 12.9931 57.7075H18.5524L16.1117 53.2263C14.8601 52.8736 10.5419 53.5894 9.74925 52.801C9.01913 52.0749 9.70753 50.716 10.5419 50.716H15.1834L14.13 46.2245L6.46372 46.1311C5.08692 45.8199 5.63973 43.8905 6.43243 43.8905H13.9735C13.6189 40.0421 14.3699 36.173 15.4963 32.5009H2.47936C2.47936 32.5009 1.79096 32.1275 1.71795 32.0445C1.13385 31.3599 1.59279 30.1774 2.51065 30.1151L16.6958 30.0529C17.3529 28.4243 18.3229 26.9617 19.3138 25.5199H11.7727C11.0426 25.5199 10.4585 23.7772 11.5433 23.3208L21.0348 23.2067C22.5159 21.4847 24.4663 20.3126 26.1248 18.8811C26.2291 18.7877 26.4064 18.8811 26.3229 18.5284H15.7362L15.7258 18.5699ZM46.0153 5.91477C46.4116 6.30894 47.3608 6.60976 47.9031 6.83797C52.8054 8.93333 58.0518 10.6034 63.0166 12.5846C65.3738 12.7195 66.1665 9.74243 64.0909 8.61176L47.9761 2.35681C45.8797 1.87965 44.5237 4.43142 46.0048 5.91477H46.0153ZM56.4768 17.9579L58.1352 13.5908L58.0935 13.2381L49.1756 9.7528L47.4129 14.4622C50.6359 15.1468 53.6085 16.4019 56.4872 17.9475L56.4768 17.9579ZM40.4559 16.3293C20.4924 17.5845 9.22773 40.2185 20.8679 56.7116C31.0791 71.1821 52.7949 71.1821 63.0061 56.7116C75.3243 39.2642 61.8275 14.9808 40.4559 16.3293Z" fill="#009588"/>
  <path d="M8.28976 39.0149C8.08116 39.2016 7.63265 39.3365 7.35104 39.3676C6.15156 39.5025 2.25064 39.5336 1.11374 39.3572C-0.356924 39.129 -0.356924 37.1789 1.11374 36.9507C2.11505 36.7951 6.49576 36.7951 7.49706 36.9507C8.43578 37.0959 9.07203 38.3095 8.30019 39.0149H8.28976Z" fill="#009588"/>
  <path d="M7.38203 59.6575C7.21515 59.8235 6.69363 59.9791 6.43288 60.0102C5.7862 60.0828 3.53326 60.1035 2.9596 59.9791C1.77055 59.7197 1.69754 57.9356 2.78229 57.7385C3.3038 57.6451 6.37029 57.6451 6.89181 57.7385C7.7158 57.8941 7.96612 59.087 7.38203 59.6679V59.6575Z" fill="#009588"/>
  <path d="M10.1256 16.6405C10.6784 17.2006 10.4176 18.4246 9.63536 18.5699C9.10341 18.6736 6.07864 18.6528 5.55712 18.5387C4.31592 18.269 4.53496 16.5056 5.83874 16.2982C6.55843 16.1841 9.67708 16.1737 10.1256 16.6405Z" fill="#009588"/>
  <path d="M40.2995 20.5823C60.9097 19.0678 71.6529 44.6997 56.0283 58.2573C44.0753 68.6303 25.2695 62.6762 21.1808 47.5834C17.6867 34.6689 26.9383 21.5574 40.2995 20.5719V20.5823ZM47.7989 23.7254C43.6581 22.408 39.3921 22.6051 35.3034 24.0262C35.1365 24.2544 36.7324 26.5987 35.7519 27.4389C33.8849 28.414 33.6554 26.5157 33.0922 25.2398L32.9357 25.0946C29.911 26.5987 27.0322 29.2957 25.3425 32.2416C25.1861 32.501 24.529 33.6835 24.5081 33.8495C24.4872 34.0777 24.5915 34.0777 24.748 34.171C25.7702 34.7623 29.0661 35.2083 29.0661 36.5568C29.0661 36.9406 28.7011 37.5526 28.336 37.6667C27.2825 37.9779 24.7063 36.4531 23.5694 36.1834C22.3282 40.3015 22.422 44.5856 23.8718 48.6311C24.0909 48.797 27.3764 46.4735 27.5329 48.7141C27.6372 50.1455 25.9683 50.2908 24.9357 50.7679C26.6672 54.5956 30.1613 57.5104 33.8536 59.4191C34.4064 58.5788 35.1261 55.3009 35.8458 54.886C36.3673 54.5852 37.1287 54.7201 37.4416 55.2387C38.0361 56.2345 36.336 59.056 36.0648 60.1763C40.1952 61.4833 44.4925 61.3173 48.5603 59.8755C48.3308 58.89 46.8706 57.1162 48.1744 56.3797C49.7806 55.4773 50.25 57.7801 50.6985 58.807C51.0322 59.0353 53.9631 56.9191 54.4221 56.5353C56.5499 54.7304 58.2604 52.4069 59.5329 49.9381C58.6672 49.409 55.4025 48.6829 54.9853 47.9464C54.6828 47.4278 54.8184 46.6706 55.3399 46.3594C56.3412 45.7681 59.1678 47.5004 60.2943 47.739C61.5668 43.6831 61.4729 39.2746 59.9918 35.2913C59.8145 35.1565 56.3204 37.563 56.3204 35.0631C56.3204 33.642 58.0518 33.8183 58.9175 33.0819C57.6346 30.3745 55.1835 27.7605 52.6907 26.0904C52.3152 25.8311 50.177 24.5137 49.9371 24.6797C49.2904 25.6962 48.8419 29.2334 47.4129 29.2334C46.9644 29.2334 46.3595 28.8393 46.276 28.3829C46.0987 27.4389 47.9449 23.9536 47.7989 23.7565V23.7254Z" fill="#009588"/>
  <path d="M34.5628 45.9135C34.2394 46.6292 33.5615 48.8594 32.8626 49.1499C31.8509 49.5752 30.9226 48.6934 31.2251 47.6665L36.6071 35.2707C37.2642 34.306 38.4011 34.6691 38.787 35.6545C40.1638 39.534 42.5732 43.4136 43.9083 47.2516C44.2838 48.3408 44.0752 49.4092 42.7088 49.2121C41.5093 49.0358 41.3842 46.6085 40.5393 45.9031H34.5628V45.9135ZM35.6058 43.4654H39.5693L37.6606 38.9116C37.3476 38.8494 37.4519 39.0361 37.3685 39.2125C36.7114 40.5921 36.1795 42.0443 35.6058 43.4654Z" fill="#009588"/>
  <path d="M48.7797 34.7313C49.6037 34.7002 49.8644 35.2085 49.9374 35.945C50.2816 39.866 49.6558 44.2849 49.9374 48.2578C49.6975 49.4715 48.2269 49.6063 47.7158 48.486L47.6532 35.6545C47.7366 35.2189 48.352 34.7521 48.7901 34.7417L48.7797 34.7313Z" fill="#009588"/>
</svg>