<svg xmlns="http://www.w3.org/2000/svg" width="89" height="89" viewBox="0 0 89 89" fill="none">
  <g clip-path="url(#clip0_1_2127)">
    <path d="M31.5877 67.4346C27.506 67.0827 23.5913 64.6853 21.7173 61.6171C21.512 61.2872 20.9215 59.6926 20.8188 59.6266C20.6648 59.5276 19.407 59.3847 18.8422 59.0987C17.9309 58.6368 17.0324 57.5701 16.9041 56.6574C16.7244 55.3597 16.7244 51.5327 16.9297 50.246C17.2763 48.0686 20.0102 47.1998 22.2949 47.2548C25.0288 42.0531 30.9074 38.2811 37.5304 37.4563C37.4534 35.3119 35.5794 33.2994 33.0381 33.0135C26.8771 32.3206 19.0219 33.4424 12.6299 33.0135C9.29274 32.7825 6.8412 31.2099 5.41648 28.6696C5.17261 28.2407 5.0956 27.4709 4.83889 27.196C4.19712 26.5031 2.10497 26.4922 0.89845 24.6776C-2.22053 19.9708 3.27298 14.7362 9.0617 16.9686C14.1445 18.9371 13.6054 25.7883 8.16323 26.954C8.20174 28.6696 10.3196 30.1542 12.2192 30.3412C18.4058 30.935 25.876 29.9343 32.2294 30.3412C36.8373 30.6271 40.3927 33.2334 40.444 37.3134H42.9469V27.229C38.9551 26.0193 36.7603 22.2692 39.1605 18.9811C41.9714 15.1431 48.9795 15.8799 50.5069 20.2128C51.6364 23.4129 49.5314 26.1073 46.0659 27.229V37.3134L48.3762 37.2364C48.9153 33.3434 51.9701 30.6601 56.578 30.3522C62.9828 29.9233 70.53 30.957 76.7936 30.3522C78.6419 30.1762 80.7212 28.6916 80.8624 27.064C75.4331 25.7663 74.817 18.9701 79.9383 16.9906C87.28 14.1533 92.6195 23.0061 85.9965 26.4592C85.5088 26.7121 84.4563 26.943 84.1739 27.218C83.8402 27.5479 83.6605 28.5596 83.391 29.0435C82.1203 31.3639 79.335 32.8265 76.3829 33.0355C69.9267 33.4753 62.2897 32.4086 55.9876 33.0465C53.3948 33.3104 51.5466 35.2899 51.4824 37.4893C58.1054 38.2701 63.984 42.0971 66.7179 47.2768C69.0026 47.2218 71.7365 48.0906 72.083 50.268C72.2884 51.5657 72.2756 55.1727 72.0959 56.5034C71.9547 57.5481 71.2103 58.5929 70.1578 59.1317C69.5802 59.4176 68.3351 59.5716 68.1811 59.6596C68.0784 59.7256 67.488 61.3201 67.2826 61.6501C65.6269 64.3774 61.1474 67.4676 57.4123 67.4676H46.0659V78.3547C51.9059 79.5864 52.4835 86.9435 46.7462 88.6701C38.4674 91.1554 34.4884 80.4882 42.9341 78.3547V67.4676C39.3017 67.2366 35.1559 67.7755 31.5877 67.4676V67.4346ZM5.59617 19.1131C0.782933 19.8719 3.69655 26.6791 8.13756 24.1498C11.141 22.4342 9.17722 18.5522 5.59617 19.1131ZM46.8232 19.8389C43.794 17.2435 39.1348 21.2245 42.1768 23.8198C45.2188 26.4152 49.8395 22.4232 46.8232 19.8389ZM81.8379 19.1131C78.5777 19.6849 78.7061 24.1608 82.0176 24.5896C87.3057 25.2825 87.0875 18.1783 81.8379 19.1131ZM40.3927 39.8207C34.604 40.1286 29.5725 42.1081 26.3124 46.32C25.7733 47.0238 24.6309 49.3442 24.1817 49.6742C23.0008 50.5319 20.1001 49.0143 19.8049 51.1038C19.6637 52.1045 19.6508 54.9528 19.8049 55.9315C20.0487 57.5701 22.5003 56.7013 23.2447 57.4492C23.5913 57.8011 24.0662 59.7805 24.5668 60.5943C25.953 62.8268 28.5072 64.2564 31.3951 64.7403C39.7124 64.2564 49.2234 65.4551 57.4123 64.7623C60.2617 64.5203 63.201 62.6398 64.5102 60.4844C64.9594 59.7366 65.3959 57.8121 65.7552 57.4492C66.4612 56.7453 68.4507 57.4821 69.0282 56.3274C69.3106 55.7556 69.285 52.0935 69.1951 51.2797C68.9384 48.8934 66.2045 50.5979 64.8183 49.6852C64.4332 49.4322 63.2139 47.0019 62.7004 46.331C57.515 39.6448 48.9923 39.3698 40.4055 39.8317L40.3927 39.8207ZM43.717 80.8621C39.8408 81.4669 40.8162 86.8885 45.0776 86.3057C49.0565 85.7668 48.4918 80.1033 43.717 80.8621Z" fill="#004487"/>
    <path d="M65.1905 0.0220595C70.1065 -0.307855 73.4821 4.17899 71.313 7.95101C70.4787 9.39164 68.9256 10.0845 67.3469 10.7993C66.9618 14.9232 68.9384 20.6417 63.2909 22.6762C61.1089 23.457 59.1066 22.6762 57.5279 24.5127C56.5267 25.6784 57.3353 27.7679 55.9234 28.1308C52.4066 29.0326 53.934 24.1388 55.2432 22.7312C57.1941 20.6307 58.6574 20.9057 61.3399 20.4548C65.9093 19.685 64.0482 13.8125 64.3819 10.9752C64.2407 10.6123 62.9829 10.3704 62.4695 10.1174C57.1941 7.40115 59.0809 0.428954 65.1905 0.0220595ZM64.9595 2.69437C60.1463 3.43118 62.9957 10.3044 67.5009 7.73107C70.4787 6.02651 68.502 2.15551 64.9595 2.69437Z" fill="#004487"/>
    <path d="M24.8491 10.7003C25.1444 12.9108 24.1432 17.0127 25.3369 18.8932C26.8514 21.3016 31.0358 19.861 33.6798 22.4563C35.0532 23.7979 36.9657 28.6037 33.4873 28.1638C31.8315 27.9549 32.5118 26.4813 32.2294 25.4915C31.3951 22.6432 27.6472 23.501 25.2342 22.3793C20.2413 20.0699 22.3848 14.9452 21.8714 10.9863C21.743 10.6124 20.0231 10.0845 19.4326 9.68859C13.9905 6.10352 18.5598 -1.59449 25.3626 0.330013C31.331 2.01258 30.9074 9.41366 24.862 10.7113L24.8491 10.7003ZM22.68 2.6944C19.1631 3.17828 19.3043 7.7201 22.6415 8.17099C27.8269 8.8748 27.7884 1.99058 22.68 2.6944Z" fill="#004487"/>
    <path d="M38.1081 43.9227C41.8175 43.5928 51.2771 43.5268 54.5372 44.7255C58.6317 46.2431 61.3656 49.7952 61.6993 53.5892C61.9817 56.8334 61.802 60.8363 57.0145 61.1882C49.0309 61.7711 40.0847 60.7264 32.0113 61.1882C27.1467 60.7044 27.0184 56.8114 27.3392 53.4242C27.8141 48.4755 32.3322 44.4286 38.1209 43.9227H38.1081ZM37.6845 46.595C31.6006 47.3428 29.9576 52.4565 30.4325 56.9983C30.5737 58.384 31.562 58.5819 33.0381 58.6919C40.3542 59.2307 48.556 58.274 55.962 58.6919C57.2327 58.5599 58.3878 58.439 58.5675 57.1743C59.1965 52.5225 57.207 47.0899 50.9562 46.551C48.0811 46.3091 40.4441 46.2541 37.6845 46.595Z" fill="#004487"/>
    <path d="M36.4266 50.6968C39.3273 50.136 39.8536 53.6111 37.3764 54.018C34.8992 54.4249 34.1162 51.1477 36.4266 50.6968Z" fill="#004487"/>
    <path d="M51.4183 50.6968C54.319 50.136 54.8325 53.6111 52.3681 54.018C49.9037 54.4249 49.1849 51.1257 51.4183 50.6968Z" fill="#004487"/>
  </g>
  <defs>
    <clipPath id="clip0_1_2127">
      <rect width="89" height="89" fill="white"/>
    </clipPath>
  </defs>
</svg>