<svg xmlns="http://www.w3.org/2000/svg" width="89" height="89" viewBox="0 0 89 89" fill="none">
  <g clip-path="url(#clip0_1_2134)">
    <path d="M21.7731 6.07429C20.7754 11.2828 12.7205 11.1361 12.0016 5.97159C11.0773 -0.660127 19.9538 -2.33273 21.9052 3.8735H44.4119C44.8081 3.7708 45.615 4.35768 45.615 4.69513V16.7995H48.6668C48.8135 16.7995 49.6792 17.313 49.8552 17.4597C51.1464 18.6481 51.0877 23.2405 51.8213 23.798L54.1835 24.693L58.453 21.964L58.5263 10.0797C57.4113 9.4195 56.5456 9.1554 55.7387 8.06968C52.6136 3.81481 57.0151 -1.58446 61.8275 0.513628C65.2608 2.01017 65.7009 6.98395 62.6051 9.12606C62.2237 9.39015 60.8885 9.83031 60.8005 10.0797V21.6559C61.0206 22.3602 65.9063 26.5563 66.7867 27.7007C68.694 30.1803 65.2021 32.5865 64.3218 34.846L65.5249 37.4576C67.0654 37.9564 70.5133 38.0151 71.5697 39.1742C71.7164 39.3356 72.2299 40.2159 72.2299 40.3626V43.4144H82.9405V21.8026C77.7319 20.8489 77.864 12.75 83.0432 12.0311C89.6749 11.1068 91.3475 19.9833 85.1413 21.9347V44.4414C85.2439 44.8376 84.6571 45.6445 84.3196 45.6445H72.2153V48.6963C72.2153 48.843 71.7018 49.7086 71.555 49.8847C70.3666 51.1758 65.7743 51.1172 65.2168 51.8507L64.3218 54.2129L67.0508 58.4825L78.935 58.5558C79.5953 57.4408 79.8594 56.5751 80.9451 55.7682C85.1999 52.643 90.5992 57.0446 88.5011 61.857C86.9752 65.3783 81.9574 65.7011 79.8153 62.5319C79.4045 61.9304 79.3752 61.3288 78.935 60.83H67.3589C66.6546 61.0501 62.4584 65.9358 61.314 66.8161C58.8491 68.7088 56.4136 65.2609 54.1688 64.3512L51.5572 65.5543C51.0583 67.0949 50.9996 70.5428 49.8406 71.5992C49.6792 71.7459 48.7989 72.2594 48.6521 72.2594H45.6004V82.9699H67.2121C68.1658 77.7467 76.2647 77.9081 76.9837 83.0726C77.908 89.7044 69.0315 91.377 67.0801 85.1707H44.5733C44.1772 85.2734 43.3702 84.6866 43.3702 84.3491V72.2448H40.3185C40.1571 72.2448 39.1887 71.6725 39.0273 71.5112C37.9123 70.4108 37.8829 65.7744 37.164 65.2462L34.8018 64.3512L30.5323 67.0802L30.4589 78.9645C31.8234 79.7128 32.8358 80.0942 33.5987 81.5468C35.9316 85.9043 31.6474 90.4966 27.1577 88.5453C23.6365 87.0194 23.3137 82.0016 26.4828 79.8595C27.0844 79.4487 27.6859 79.4193 28.1848 78.9792V67.403C27.9647 66.6988 23.0789 62.5026 22.1986 61.3582C20.3059 58.8933 23.7538 56.4577 24.6635 54.2129L23.4604 51.6013C21.9199 51.1025 18.4719 51.0438 17.4156 49.8847C17.2689 49.7233 16.7553 48.843 16.7553 48.6963V45.6445H6.04481V67.2563C11.2534 68.21 11.1066 76.3089 5.94211 77.0278C-0.689606 77.9521 -2.36221 69.0756 3.84402 67.1242V44.6175C3.74132 44.2213 4.3282 43.4144 4.66565 43.4144H16.77V40.3626C16.77 40.2012 17.3422 39.2329 17.5036 39.0715C18.604 37.9564 23.2403 37.9271 23.7685 37.2082L24.6635 34.846L21.9345 30.5764L10.0503 30.5031C9.30199 31.8676 8.92052 32.8799 7.46799 33.6429C3.1251 35.9757 -1.48189 31.7062 0.469476 27.2019C1.96601 23.7687 6.9398 23.3285 9.08191 26.4243C9.346 26.8057 9.78616 28.1409 10.0356 28.2289H21.6117C22.316 28.0088 26.5122 23.1231 27.6566 22.2428C30.1215 20.3501 32.557 23.798 34.8018 24.7077L37.4134 23.5046C37.9123 21.964 37.971 18.5161 39.13 17.4597C39.2914 17.313 40.1718 16.7995 40.3185 16.7995H43.3702V6.08897H21.7585L21.7731 6.07429ZM18.9415 6.93994C21.3623 4.5044 17.797 0.60166 15.1121 2.84647C12.2217 5.25267 16.1538 9.72761 18.9415 6.93994ZM59.436 2.23025C55.768 2.61172 56.1788 8.48049 60.4484 7.68821C63.4415 7.13067 63.0013 1.86345 59.436 2.23025ZM82.0748 18.9416C84.5104 21.3625 88.4131 17.7972 86.1683 15.1122C83.7621 12.2218 79.2871 16.1539 82.0748 18.9416ZM48.3587 19.0296H40.6413C40.4212 19.2204 39.7903 23.93 39.3061 24.8104C38.8219 25.6907 35.5648 27.0405 34.6404 26.9525C33.408 26.8351 29.6226 23.6953 29.1678 23.9007L23.8272 29.2853C23.7685 29.6521 26.8203 33.3788 26.9377 34.6406C26.9963 35.2861 25.9987 37.8684 25.6319 38.4699C24.5755 40.1719 20.7314 39.9078 19.0001 40.7294L19.0295 48.3588C19.2202 48.5789 23.8859 49.1951 24.8102 49.694C25.6612 50.1635 27.0404 53.4353 26.9523 54.3597C26.835 55.5921 23.6952 59.3775 23.9006 59.8323L29.2558 65.1289C29.8427 65.1729 33.2466 62.2091 34.4497 62.0478C35.198 61.945 37.7949 62.9427 38.4698 63.3536C40.1718 64.4099 39.9077 68.254 40.7293 69.9853L48.3587 69.9559C48.9896 68.2246 48.9016 64.3512 50.5301 63.3536C50.8969 63.1335 53.2885 62.1358 53.6846 62.0771C55.724 61.7396 57.9248 64.5567 59.8321 65.0848L65.1287 59.7296C65.1727 59.128 62.1797 55.7095 62.0476 54.345C61.9889 53.6994 62.9866 51.1172 63.3534 50.5156C64.4098 48.8137 68.2538 49.0778 69.9851 48.2561L69.9558 40.6267C69.7651 40.4066 65.0994 39.7904 64.175 39.2916C63.3241 38.8221 61.9449 35.5502 62.0329 34.6259C62.1503 33.3935 65.2901 29.6081 65.0847 29.1533L59.7294 23.8567C59.1279 23.8127 55.7093 26.8057 54.3448 26.9378C53.6993 26.9965 51.117 25.9988 50.5155 25.632C48.8869 24.6343 48.9749 20.7609 48.344 19.0296H48.3587ZM4.16681 26.615C1.1884 27.2899 1.87798 32.5718 5.3699 32.0877C9.14059 31.5741 8.23093 25.7054 4.16681 26.615ZM83.63 56.9272C80.3875 57.3967 80.5783 61.9744 83.41 62.4146C87.9142 63.1335 87.6208 56.3404 83.63 56.9272ZM6.9398 70.0586C4.50426 67.6378 0.601524 71.203 2.84633 73.888C5.25253 76.7784 9.72747 72.8463 6.9398 70.0586ZM28.5662 81.312C26.1747 81.7522 25.7052 85.6109 28.3755 86.5792C32.6891 88.1491 33.6868 80.3583 28.5662 81.312ZM70.0585 82.075C67.6376 84.5105 71.2029 88.4132 73.8879 86.1684C76.7782 83.7622 72.8462 79.2873 70.0585 82.075Z" fill="#004487"/>
    <path d="M36.3718 57.25C36.5478 58.2184 37.2374 59.1427 36.7972 60.1697C36.5625 60.7126 35.4768 60.6832 35.0806 60.3018C34.9046 60.1257 33.5254 55.9149 33.452 55.46C33.3493 54.7118 33.408 54.1689 34.1416 53.8461C34.8165 53.5527 38.059 52.5403 38.6899 52.4669C40.1424 52.3202 40.744 53.7141 39.5702 54.4623C39.3355 54.6091 37.2814 55.1226 37.4721 55.4013C46.4954 61.006 58.1743 54.1396 57.426 43.4877C57.3526 42.402 56.3843 40.48 58.1156 40.2892C59.7442 40.0985 59.7001 44.3094 59.6561 45.3364C59.0106 56.7658 46.0259 63.4709 36.3718 57.25Z" fill="#004487"/>
    <path d="M50.9703 33.4226L49.1217 32.4102C40.2745 28.9917 30.9138 36.1369 31.574 45.5269C31.6327 46.3926 32.5277 48.3586 31.1045 48.5787C29.4906 48.8281 29.4466 46.774 29.3586 45.5269C28.5223 33.3345 42.0498 25.1623 52.4522 31.5739C52.5549 30.7083 52.0561 29.7839 52.3055 28.933C52.5989 27.9499 54.1541 28.0086 54.4476 29.1237C54.653 29.9013 55.1958 34.1855 54.9464 34.7137C54.829 34.9631 54.4182 35.1392 54.1541 35.2272C53.4205 35.4473 49.2537 35.9902 48.6815 35.7994C48.1093 35.6087 48.0506 34.4203 48.4761 33.9801C48.9456 33.4959 50.3101 33.6427 50.9703 33.4226Z" fill="#004487"/>
    <path d="M42.9741 36.7972C51.4985 35.5647 55.7094 45.9671 49.107 50.8675C42.5046 55.768 34.0096 48.5347 37.3841 41.1841C38.3084 39.174 40.744 37.1199 42.9741 36.7972ZM43.3409 38.9979C41.2868 39.3207 39.2474 41.4335 38.9687 43.5022C38.2938 48.5494 43.7224 52.0413 47.8012 49.0189C52.5549 45.4976 49.4151 38.0589 43.3409 39.0126V38.9979Z" fill="#004487"/>
  </g>
  <defs>
    <clipPath id="clip0_1_2134">
      <rect width="89" height="89" fill="white"/>
    </clipPath>
  </defs>
</svg>