<svg xmlns="http://www.w3.org/2000/svg" width="32" height="40" viewBox="0 0 32 40" fill="none">
  <path d="M16.009 19.3795C17.0117 19.3795 17.8685 19.0281 18.5795 18.3251C19.2905 17.6221 19.6452 16.7764 19.6437 15.7878C19.6422 14.7992 19.2845 13.9556 18.5705 13.2571C17.8564 12.5586 16.9974 12.2093 15.9932 12.2093C14.9891 12.2093 14.1323 12.5616 13.4228 13.266C12.7133 13.9704 12.3585 14.8162 12.3585 15.8033C12.3585 16.7904 12.7155 17.634 13.4295 18.334C14.1436 19.034 15.0034 19.3832 16.009 19.3818M16 37.0209C20.239 33.3892 23.5896 29.6961 26.0519 25.9415C28.5141 22.187 29.7452 18.9385 29.7452 16.1962C29.7452 12.1353 28.4397 8.78332 25.8286 6.14019C23.2146 3.49853 19.9384 2.1777 16 2.1777C12.0616 2.1777 8.78542 3.49853 6.17136 6.14019C3.55731 8.78184 2.25179 12.1339 2.25479 16.1962C2.25479 18.937 3.48591 22.1855 5.94814 25.9415C8.41037 29.6975 11.761 33.3907 16 37.0209ZM16 40C10.7012 35.3871 6.71026 31.085 4.02706 27.0936C1.34235 23.1023 0 19.4698 0 16.1962C0 11.5005 1.5528 7.6275 4.6584 4.57739C7.7655 1.5258 11.546 0 16 0C20.454 0 24.2345 1.5258 27.3416 4.57739C30.4472 7.6275 32 11.5005 32 16.1962C32 19.4698 30.6584 23.1023 27.9752 27.0936C25.2905 31.085 21.2988 35.3871 16 40Z" fill="#004487"/>
</svg>