<svg xmlns="http://www.w3.org/2000/svg" width="66" height="70" viewBox="0 0 66 70" fill="none">
  <path d="M12.7969 47.0597C12.4655 47.0046 12.1986 46.4811 12.1618 46.1596C11.9593 44.4973 12.5392 40.9983 12.1434 39.6574C12.0697 39.4003 11.5358 39.0513 11.3425 38.7941C9.9802 36.9757 9.63041 35.194 10.4404 33.0358L28.1416 2.3798C30.4613 -0.807027 35.1651 -0.779476 37.4571 2.3798L55.1675 33.045C55.9775 35.194 55.6278 36.9849 54.2654 38.8033C54.0721 39.0696 53.5382 39.4094 53.4646 39.6666C53.0688 41.0074 53.6487 44.4973 53.4462 46.1688C53.4094 46.4535 53.1148 47.0688 52.811 47.0688H50.2336L56.5759 54.7007L63.0562 47.0688H60.4788C60.3131 47.0688 59.7424 46.5821 59.8436 46.3158L59.9265 30.2806C60.58 29.4173 61.6478 29.7204 61.7951 30.7765V45.131H64.3817C65.201 45.131 65.9742 46.6831 65.4127 47.3995L57.7173 56.464C56.898 57.1161 56.1156 57.0151 55.3884 56.3079L47.8127 47.3352C47.1592 46.6831 48.0613 45.131 48.77 45.131H51.4855V40.686L40.4763 40.8238V52.2027H45.1433C46.4136 52.2027 47.2972 54.214 46.3031 55.1599C42.1885 59.4396 38.6538 64.7755 34.5483 68.9909C33.2412 70.3318 32.3667 70.341 31.0596 68.9909C26.9542 64.7755 23.4195 59.4396 19.3049 55.1599C18.3107 54.214 19.1944 52.2027 20.4647 52.2027H25.1316V40.8238L14.1224 40.686V45.131H16.8379C17.5467 45.131 18.4488 46.6831 17.7952 47.3352L10.2195 56.3079C8.90322 57.5202 8.17602 56.6936 7.2187 55.6834C4.77938 53.1027 2.64382 50.0077 0.195292 47.4087C-0.375417 46.6923 0.407007 45.1402 1.22625 45.1402H3.80365V30.7857C3.96013 29.7296 5.02791 29.4357 5.68147 30.2898L5.76431 46.3249C5.86557 46.6005 5.29486 47.078 5.12917 47.078H2.55177L9.03209 54.7099L15.3743 47.078C14.5919 46.9862 13.5425 47.2066 12.7969 47.078V47.0597ZM32.2103 1.99407C31.4002 2.10428 30.673 2.53593 30.0747 3.05941L12.1342 34.0368C11.5635 35.9747 12.6128 38.0227 14.5183 38.6931C26.6596 38.987 38.9575 38.987 51.0989 38.6931C52.9951 38.0319 54.0537 35.9655 53.483 34.0368L35.7082 3.29819C34.8705 2.26041 33.545 1.80121 32.2103 1.99407ZM38.5157 40.8146H27.0831V53.3782C27.0831 53.5068 26.6689 54.1405 26.4571 54.1405H21.0906L32.8454 67.8705L44.4989 54.1405H39.1324C38.9759 54.1405 38.5065 53.5711 38.5065 53.516V40.8146H38.5157Z" fill="#009588"/>
  <path d="M4.12575 3.51902C4.66884 2.97717 5.54332 3.26187 5.75503 3.96903C5.57093 5.75072 6.02198 8.07425 5.75503 9.78246C5.58014 10.9121 4.01529 10.8386 3.82199 9.49776C3.67471 8.45079 3.68391 5.44765 3.80358 4.37313C3.83119 4.14353 3.96927 3.66596 4.12575 3.50983V3.51902Z" fill="#009588"/>
  <path d="M61.4732 3.51862C61.6297 3.67475 61.7678 4.15232 61.7954 4.38191C61.915 5.45643 61.9243 8.45958 61.777 9.50655C61.5929 10.8474 60.028 10.9117 59.8439 9.79125C59.577 8.08304 60.0188 5.75951 59.8439 3.97782C60.0556 3.27066 60.9301 2.98596 61.4732 3.52781V3.51862Z" fill="#009588"/>
  <path d="M12.9718 17.6624C13.6162 17.5522 14.058 18.0665 14.1225 18.6818C14.2145 19.4808 14.2513 22.686 14.1225 23.4024C13.9568 24.2932 12.6036 24.4585 12.2446 23.6136C12.1066 23.283 12.0974 19.1043 12.1802 18.5625C12.2446 18.1675 12.5668 17.7451 12.9718 17.6716V17.6624Z" fill="#009588"/>
  <path d="M52.2771 17.6624C52.9214 17.5522 53.3633 18.0665 53.4277 18.6818C53.529 19.5635 53.5474 22.4105 53.4185 23.2554C53.2436 24.3208 51.9181 24.4953 51.5499 23.6044C51.4118 23.2738 51.4026 19.0951 51.4854 18.5533C51.5499 18.1584 51.8721 17.7359 52.2771 17.6624Z" fill="#009588"/>
  <path d="M4.12576 26.6161C3.96928 26.4599 3.8312 25.9824 3.80359 25.7528C3.71154 24.8987 3.69313 22.4098 3.81279 21.5925C4.0153 20.2516 5.57095 20.3343 5.75505 21.3078C5.86551 21.8772 5.86551 25.5875 5.75505 26.1569C5.62618 26.8273 4.62283 27.1028 4.12576 26.6069V26.6161Z" fill="#009588"/>
  <path d="M61.4729 20.8673C61.6294 21.0234 61.7675 21.501 61.7951 21.7306C61.8964 22.6122 61.9056 25.0276 61.7859 25.8909C61.6018 27.195 60.0185 27.1215 59.8436 26.1756C59.7332 25.597 59.7332 21.8959 59.8436 21.3265C59.9817 20.6193 60.9574 20.3622 61.4729 20.8765V20.8673Z" fill="#009588"/>
  <path d="M12.4931 10.5992C13.0454 10.1584 13.9935 10.4247 14.1132 11.187C14.196 11.738 14.2052 14.1075 14.0948 14.6218C13.8738 15.632 12.355 15.6228 12.1801 14.5024C12.0881 13.8963 12.0881 11.9401 12.1617 11.3156C12.1893 11.1043 12.3274 10.7278 12.4839 10.5992H12.4931Z" fill="#009588"/>
  <path d="M53.1151 10.5999C53.2716 10.7285 53.4097 11.105 53.4373 11.3162C53.5201 11.9407 53.5201 13.8969 53.4189 14.5031C53.244 15.6143 51.7344 15.6327 51.5042 14.6224C51.3938 14.1081 51.3938 11.7387 51.4858 11.1877C51.6055 10.4254 52.5536 10.1499 53.1059 10.5999H53.1151Z" fill="#009588"/>
  <path d="M13.1007 3.24307C13.8187 3.20633 14.0764 3.75737 14.1317 4.3727C14.1777 4.90536 14.2145 7.13706 14.0948 7.54115C13.8555 8.36771 12.53 8.46873 12.2354 7.50442C12.1066 7.08196 12.0974 4.45535 12.2078 3.98697C12.2999 3.57369 12.6865 3.26144 13.1007 3.23389V3.24307Z" fill="#009588"/>
  <path d="M52.4057 3.24295C53.1237 3.20621 53.3814 3.75725 53.4367 4.37257C53.4919 4.9879 53.5195 6.86142 53.3998 7.40327C53.1789 8.36759 51.8994 8.47779 51.5496 7.64206C51.4116 7.32062 51.4116 4.42768 51.5036 3.99603C51.5957 3.56439 51.9823 3.2705 52.3965 3.24295H52.4057Z" fill="#009588"/>
  <path d="M4.12583 17.4599C3.6932 17.0283 3.72081 14.5027 3.84048 13.8507C4.0706 12.6016 5.58022 12.62 5.75511 13.5476C5.83796 13.9976 5.83796 16.5599 5.75511 17.0099C5.61704 17.7171 4.64131 17.9742 4.12583 17.4599Z" fill="#009588"/>
  <path d="M61.4728 17.4597C60.9574 17.974 59.9724 17.7169 59.8436 17.0097C59.7607 16.5597 59.7607 13.9974 59.8436 13.5474C60.0185 12.629 61.5281 12.6014 61.7582 13.8504C61.8779 14.4933 61.9055 17.0281 61.4728 17.4597Z" fill="#009588"/>
  <path d="M31.3726 9.34163C32.1919 9.20387 33.996 9.23142 34.7509 9.51612C36.9416 10.3427 36.2144 12.8958 36.15 14.6499C36.0119 18.1307 35.9475 22.0246 35.5701 25.4594C35.34 27.5626 33.8948 28.2054 31.9065 27.8932C30.7743 27.7187 30.1484 26.488 30.0379 25.4594C29.6513 21.8869 29.412 17.4235 29.3199 13.8234C29.2739 12.0325 29.0622 9.72735 31.3818 9.34163H31.3726ZM33.9868 11.2519H31.6212C31.1241 11.2519 31.253 13.3917 31.2714 13.8234C31.299 14.7785 31.5015 15.9081 31.5567 16.8725C31.7224 19.894 31.7868 22.9522 32.1274 25.9462H33.4898C33.8396 22.9522 33.904 19.894 34.0605 16.8725C34.1157 15.9081 34.3182 14.7785 34.3458 13.8234C34.3642 13.3275 34.5115 11.3896 33.996 11.2519H33.9868Z" fill="#009588"/>
  <path d="M32.3483 30.2991C36.5734 29.7573 37.1349 35.8646 33.5358 36.4707C28.9425 37.2514 28.3258 30.8042 32.3483 30.2991ZM32.6337 32.2369C31.032 32.4298 31.4278 35.084 33.2688 34.5421C34.4011 34.2115 34.1893 32.0533 32.6337 32.2369Z" fill="#009588"/>
</svg>