<svg xmlns="http://www.w3.org/2000/svg" width="89" height="89" viewBox="0 0 89 89" fill="none">
  <g clip-path="url(#clip0_1_2090)">
    <path d="M79.1011 13.2371H81.7012C81.7012 13.2371 82.4256 13.6164 82.4627 13.6543C83.0013 14.2233 82.5184 19.0971 82.6856 20.1971H86.9016C87.013 20.1971 87.4773 20.785 87.533 21.0315C87.6445 21.6004 87.5887 27.1949 87.4402 27.5173C87.403 27.6122 86.9387 28.0673 86.9016 28.0673H83.7628V81.4901H88.3316C88.4431 81.4901 88.9074 82.078 88.9631 82.3245C89.0746 82.8934 89.0188 88.0897 88.8702 88.45C88.7031 88.8103 88.2016 89.0758 87.8116 89.0189H1.26319C0.483141 88.962 0.185979 88.5827 0.093116 87.8242C-0.0183198 86.7811 -0.055465 83.5192 0.093116 82.5331C0.148834 82.1728 0.538859 81.509 0.891739 81.509H8.50651V12.8768H5.72062C5.60918 12.8768 5.14487 12.2889 5.08915 12.0424C4.922 11.17 4.95914 6.77026 5.08915 5.82204C5.1263 5.5755 5.1263 5.34793 5.34917 5.17725L50.1092 5.06346C50.6664 5.13932 50.7221 5.51861 50.7778 6.03065C50.9078 7.26333 50.945 10.6959 50.7778 11.8906C50.7221 12.2889 50.3321 12.8958 49.9606 12.8958H47.3604V20.216H53.638V14.0905C53.638 14.0905 54.4923 13.2751 54.6223 13.2751H59.0055V5.85997C59.0055 5.85997 59.3584 5.27207 59.4326 5.21518C59.8227 4.93071 64.1687 4.94967 64.6144 5.21518C64.7073 5.27207 64.9116 5.61343 64.9116 5.68929V13.2751H73.1578V1.08093C73.1578 0.758537 73.585 0.151676 73.975 0.0758184C74.5136 -0.0379681 77.8938 -0.0379681 78.451 0.0758184C78.6553 0.113747 79.0825 0.398213 79.0825 0.530964V13.2371H79.1011ZM77.1324 2.08605H75.3494V13.2371H77.1324V2.08605ZM48.8277 10.6769V7.30126L48.5677 7.03576H7.07642V10.6959H48.8091L48.8277 10.6769ZM62.98 13.2371V7.30126C62.5528 6.80819 61.7728 7.09265 61.197 7.03576V13.2561H62.98V13.2371ZM45.2432 12.8768H10.6609V20.1971H36.9041C37.3498 20.1971 37.4984 20.8419 37.5355 21.2022C37.7584 23.3072 37.7584 28.2569 37.5355 30.362C37.4984 30.7033 37.2384 31.5378 36.9041 31.5378H10.6609V38.858H36.9041C36.9041 38.858 37.3869 39.1425 37.4427 39.2184C37.3684 42.2906 37.8327 45.9697 37.5355 49.023C37.4984 49.3643 37.2384 50.1988 36.9041 50.1988H10.6609V57.519H36.9041C36.9041 57.519 37.3869 57.8035 37.4427 57.8794L37.3684 68.4046C37.3684 68.4046 36.774 68.8408 36.7369 68.8408H10.6609V81.4711H45.2432V12.8768ZM80.5311 15.437H55.811V20.1971H80.5311V15.437ZM85.3786 22.2073H47.3976V25.8674H85.3786V22.2073ZM17.4771 22.3969H10.6609V29.3569H17.4771V22.3969ZM26.4291 22.3969H19.7987V29.3569H26.4291V22.3969ZM35.5668 22.3969H28.5835V29.3569H35.5668V22.3969ZM81.6084 28.0673H47.3976V81.4901H56.3496V72.5199H50.7035C50.4249 72.5199 50.1092 71.6475 50.072 71.3441C49.8492 69.3718 49.8863 64.5738 50.072 62.5446C50.1278 61.9567 50.1649 61.5016 50.7778 61.255L77.7638 61.1602C78.3024 61.1602 78.971 61.3878 79.1011 61.9946L79.0082 72.1406C79.0082 72.1406 78.6925 72.5009 78.6553 72.5009H72.6563V81.4711H81.6084V28.0673ZM17.4771 40.8683H10.6609V47.9989H17.4771V40.8683ZM26.4291 40.8683H19.7987V47.9989H26.4291V40.8683ZM35.5668 47.9989V41.1338L35.3068 40.8683H28.5835V47.9989H35.5668ZM17.4771 59.5293H10.6609V66.6599H17.4771V59.5293ZM26.4291 59.5293H19.7987V66.6599H26.4291V59.5293ZM35.5668 59.5293H28.5835V66.6599H35.5668V59.5293ZM59.0426 63.3601H52.2265V70.4907L59.0426 70.301V63.3411V63.3601ZM67.9946 63.3601H61.3642V70.32H67.9946V63.3601ZM77.1324 63.3601H70.149V70.32L77.1324 70.5097V63.379V63.3601ZM63.5186 72.6906H58.504V81.4711H63.5186V72.6906ZM70.5019 72.6906H65.4873V81.4711H70.5019V72.6906ZM86.9758 83.671H2.24754V86.7811H86.9758V83.671Z" fill="#004487"/>
    <path d="M35.8823 70.3579C36.7923 70.1493 41.5841 70.1872 42.6613 70.32C43.3299 70.3958 43.7385 70.6234 43.8314 71.3251C44.0171 72.7285 44.0171 77.6213 43.8314 79.0246C43.7385 79.7263 43.3299 79.9539 42.6613 80.0298C41.7327 80.1436 36.4209 80.1625 35.7523 79.9539C35.2322 79.7832 35.1022 79.347 35.0465 78.854C34.8608 77.2989 34.8608 73.0698 35.0465 71.5337C35.1208 70.9458 35.288 70.5286 35.9009 70.3958L35.8823 70.3579ZM41.6584 72.5199H37.1824V77.8299H41.6584V72.5199Z" fill="#004487"/>
    <path d="M24.4043 70.3579C25.3143 70.1493 30.1061 70.1872 31.1833 70.32C31.9819 70.4148 32.2605 70.6993 32.3533 71.5147C32.5391 73.1646 32.5019 76.9765 32.3533 78.6643C32.2791 79.5557 32.1119 79.916 31.1833 80.0298C30.2546 80.1436 24.9243 80.1625 24.2743 79.9539C23.7542 79.7832 23.6242 79.347 23.5685 78.854C23.3828 77.2989 23.3828 73.0698 23.5685 71.5337C23.6428 70.9458 23.8099 70.5286 24.4228 70.3958L24.4043 70.3579ZM30.1989 72.5199H25.7229V77.8299H30.1989V72.5199Z" fill="#004487"/>
    <path d="M20.4672 70.5476C20.6529 70.7183 20.8387 71.401 20.8758 71.6855C20.9872 72.7285 21.0244 78.323 20.7829 79.1006C20.5972 79.7454 20.1143 79.954 19.5386 80.0109C18.0899 80.1626 14.6725 80.1626 13.261 80.0109C12.611 79.935 12.1838 79.7264 12.091 79.0058C11.9052 77.6214 11.9052 72.6906 12.091 71.3062C12.1467 70.8321 12.3324 70.5476 12.8153 70.3959C13.6325 70.1494 18.4614 70.2063 19.5571 70.3011C19.8543 70.3201 20.2629 70.3201 20.4858 70.5476H20.4672ZM18.7214 72.5199H14.0597V77.83H18.7214V72.5199Z" fill="#004487"/>
    <path d="M50.9263 31.0258L78.3952 31.0637L78.9339 31.4241L79.0639 41.8355L78.7481 42.2338C69.4247 42.4424 60.0826 42.3286 50.7406 42.2907C50.2763 42.0821 50.1277 41.6269 50.072 41.1338C49.8491 39.1236 49.8863 34.3825 50.072 32.3343C50.1277 31.6706 50.202 31.1965 50.9263 31.0068V31.0258ZM59.0426 33.1877H52.2264V40.3184H59.0426V33.1877ZM67.9946 33.1877H61.3642V40.3184H67.9946V33.1877ZM77.1323 33.1877H70.149V40.3184H77.1323V33.1877Z" fill="#004487"/>
    <path d="M78.8779 46.4059C79.0822 46.6903 79.0822 47.0317 79.1008 47.3541C79.3422 50.2936 78.8965 53.5365 79.1008 56.5139L78.4322 57.4811L50.6475 57.3863L50.1461 56.7984C50.2575 53.8589 49.7375 50.2367 50.0718 47.3541C50.1275 46.88 50.2761 46.4248 50.7404 46.1973L78.8779 46.3869V46.4059ZM59.0423 48.1885H52.2262V55.3191H59.0423V48.1885ZM67.9943 48.1885H61.3639V55.3191H67.9943V48.1885ZM77.1321 48.1885H70.1488V55.3191H77.1321V48.1885Z" fill="#004487"/>
    <path d="M62.4041 75.1181C63.2398 75.9335 63.1284 80.7126 60.8254 78.9678C60.6025 78.6075 60.5654 76.0094 60.6954 75.5543C60.8811 74.9474 61.9397 74.6629 62.4041 75.1181Z" fill="#004487"/>
    <path d="M67.0474 74.9283C67.8646 74.7766 68.2732 75.3266 68.3475 76.0852C68.4218 76.8437 68.5146 78.7402 67.9017 79.1195C65.6916 80.4849 65.6544 75.1938 67.0474 74.9283Z" fill="#004487"/>
  </g>
  <defs>
    <clipPath id="clip0_1_2090">
      <rect width="89" height="89" fill="white"/>
    </clipPath>
  </defs>
</svg>