<svg xmlns="http://www.w3.org/2000/svg" width="40" height="40" viewBox="0 0 40 40" fill="none">
  <path d="M39.0367 30.1273C38.4261 29.6979 31.7448 25.2522 30.9259 24.7516C30.5692 24.5332 30.1338 24.4264 29.6604 24.4264C29.0498 24.4264 28.3737 24.6043 27.7139 24.952C27.0708 25.2909 25.123 26.4 24.1699 26.9449C23.3304 26.355 21.3583 24.8434 18.251 21.7308C15.1631 18.6419 13.6387 16.6522 13.0456 15.8077C13.5888 14.8546 14.6959 12.9054 15.0327 12.2638C15.6707 11.0542 15.7431 9.84647 15.2254 9.03196C14.7396 8.26427 10.315 1.54975 9.85844 0.918113C9.4287 0.322057 8.65718 0 7.82021 0C7.1597 0 6.45928 0.199726 5.85179 0.622894C5.79316 0.664712 -0.0771935 4.92386 0.000769726 7.34616C0.217235 14.1506 6.82473 22.1471 12.3295 27.6576C17.8343 33.1682 25.8259 39.7822 32.6523 40H32.7085C35.0985 40 39.2998 34.1998 39.3404 34.1424C40.4425 32.5665 40.0408 30.8314 39.0367 30.1273ZM37.3133 32.6883C35.731 34.8815 33.4844 37.1721 32.605 37.4998C27.9259 37.2801 21.3602 33.1652 14.0934 25.892C6.82723 18.6183 2.71576 12.0554 2.49871 7.38871C2.81431 6.50618 5.10327 4.24366 7.27501 2.67207C7.43593 2.56097 7.63426 2.49669 7.8195 2.49669C7.86063 2.49669 7.89493 2.50043 7.92179 2.50542C8.62346 3.5259 12.39 9.23185 13.0736 10.2985C13.0761 10.4108 13.0381 10.696 12.8241 11.1029C12.5965 11.5367 11.8873 12.8012 10.8788 14.5701L10.0942 15.9463L11.0041 17.2433C11.6827 18.2076 13.2969 20.3041 16.4859 23.4959C19.6886 26.7021 21.7762 28.3125 22.736 28.9877L24.0321 29.8984L25.4074 29.112C26.7403 28.3498 28.3506 27.4367 28.8746 27.1615C29.295 26.9399 29.5825 26.9224 29.6605 26.9224C29.6729 26.9224 29.6836 26.9224 29.6923 26.9237C30.6472 27.5235 36.4726 31.3938 37.5011 32.0997C37.5179 32.1996 37.5023 32.4167 37.3133 32.6883ZM25.1392 14.7149C25.3001 14.8778 25.5266 14.9771 25.7779 14.9703L26.2345 14.9596C26.2432 14.9596 26.2494 14.9559 26.2594 14.9553L35.2058 14.9946C35.7092 14.9827 36.1264 14.5658 36.1383 14.0608L36.1389 13.4205C36.0628 12.8263 35.5956 12.478 35.0917 12.4892L29.1858 12.4736L39.3971 2.26891C39.8843 1.78146 39.8843 0.990631 39.3971 0.503176C38.91 0.0163447 38.1204 0.0163447 37.6333 0.503176L27.3939 10.736L27.4282 4.69613C27.4394 4.19186 27.0397 3.75246 26.5357 3.76432L25.8958 3.7649C25.3906 3.77739 24.9733 4.07764 24.9627 4.58195L24.9371 13.5933C24.9371 13.602 24.9714 13.6083 24.9714 13.617L24.9215 14.0739C24.9165 14.3273 24.9757 14.5526 25.1392 14.7149Z" fill="#004487"/>
</svg>