<svg xmlns="http://www.w3.org/2000/svg" width="63" height="63" viewBox="0 0 63 63" fill="none">
  <path d="M33.065 0C48.0139 1.32455 56.4373 18.1736 47.8437 30.679C40.0617 42.0026 23.2671 42.1584 15.2691 30.9777C6.45295 18.6476 14.7193 1.13626 29.8514 0H33.0716H33.065ZM26.9192 34.289C26.6574 34.9189 26.3236 35.6201 26.1142 36.2629C26.0815 36.3733 25.9244 36.3992 26.1338 36.5291C26.4022 36.6849 27.9272 36.9706 28.3395 37.042C33.9879 38.0225 39.7082 36.3213 43.7989 32.3542C43.2753 31.4581 42.3393 30.8673 42.0317 29.8349C41.4361 27.8481 42.372 24.277 41.5736 22.6732C41.3576 22.2382 39.2763 19.0437 39.0406 18.9138C38.6872 18.7191 37.9149 19.1086 37.4502 19.1476C36.6124 19.219 36.3572 19.0891 35.6634 18.7126C35.1463 18.4269 32.2142 16.5244 31.9916 16.2128C31.9 16.0894 31.8738 16.0375 31.8215 15.8881C31.6447 15.3752 31.2062 12.6417 31.2259 12.1223C31.252 11.5769 31.5728 10.9081 31.9458 10.5055C32.8359 9.56405 35.0285 8.00576 36.3375 7.98628C38.5105 7.9603 38.8835 9.42121 40.258 10.2069C40.8012 10.5185 44.0738 11.7392 44.6759 11.856C44.9573 11.908 46.3711 11.3236 46.6918 11.1418C46.803 11.0769 46.9339 11.0509 46.8881 10.8821C43.1051 4.0256 34.806 0.577869 27.1287 2.45432C27.8879 3.201 29.4194 3.53214 30.0281 4.42816C31.239 6.20722 29.6223 8.25249 27.613 8.03173L26.88 10.8626L21.7029 15.4207L21.6832 16.3232C22.8351 16.1738 23.8431 16.966 24.1769 18.0243C24.4059 18.1672 27.5345 17.9724 28.1824 18.0438C29.871 18.2321 30.2441 20.0566 30.7808 21.3552C32.7901 21.7512 34.7013 22.4135 34.4329 24.8548C34.3478 25.621 32.4432 28.8869 31.7953 29.2376C31.5204 29.3869 30.6368 29.5427 30.5255 29.6986C30.3161 30.4647 30.7088 31.5555 30.2245 32.2243C29.7401 32.8931 27.6326 33.6722 26.9192 34.2826V34.289ZM26.0488 6.29812C26.1469 6.20073 26.5527 6.0449 26.7033 6.02542C27.0567 5.97997 28.5948 6.20073 28.49 5.71376C28.3591 5.55793 28.2086 5.42158 28.0384 5.30471C27.6196 5.01252 24.7856 3.43475 24.4845 3.44773C24.0198 3.46072 22.5406 4.33077 22.0694 4.61646C18.7314 6.67471 15.9367 10.0186 14.7586 13.752C14.8698 13.8559 17.3111 13.8818 17.8217 14.0896C18.7576 14.4727 18.2078 16.5894 19.7066 16.3297C19.7459 15.6349 19.5365 14.8298 20.0273 14.2519L25.211 9.69391C25.499 8.97969 25.5775 6.7786 26.0553 6.29812H26.0488ZM47.9157 12.7651L44.7937 13.9662L39.0995 11.8755C37.9018 10.9665 37.208 9.29135 35.454 10.2783C35.0874 10.4796 33.7915 11.486 33.5035 11.7846C33.3792 11.9145 33.2483 12.0443 33.2286 12.2261C33.1959 12.4924 33.6672 14.9791 33.8177 15.1544C34.6358 15.4661 36.1674 16.9725 36.8808 17.1543C37.8756 17.4075 38.6217 16.3426 40.1467 17.2257C41.3576 17.9204 42.9218 21.4266 43.8381 22.6538C44.113 24.29 43.4258 28.1922 44.041 29.4453C44.2701 29.9063 44.8722 30.3414 45.1406 30.8088C45.3697 30.8673 46.4431 29.2311 46.6132 28.9584C49.6632 24.1017 50.0886 18.0568 47.9222 12.7651H47.9157ZM16.5912 15.8557L14.1368 15.5895C12.422 22.3031 15.1644 29.757 20.8193 33.7631C20.7669 32.8216 20.4004 31.8672 20.6033 30.9062C20.8062 29.9453 22.3181 29.1986 22.1676 28.3286C21.9843 27.2702 19.7655 27.7507 19.1241 26.6729C18.6987 25.9651 17.069 21.9071 16.9904 21.1799C16.8137 19.4527 17.1148 19.0242 18.4762 18.0503C17.0297 18.1217 16.9904 16.901 16.6043 15.8557H16.5912ZM22.161 18.31C21.9254 18.2451 21.6832 18.297 21.4672 18.3879C21.3167 18.4528 19.1765 19.9657 19.0848 20.0761C18.8623 20.3488 18.9605 20.7189 18.9736 21.0435L20.7538 25.4132C21.9516 25.7379 23.3391 26.0885 23.8823 27.3416C24.707 29.2311 23.4831 30.2115 22.4752 31.6075C22.4555 31.8088 23.0773 35.1721 23.1886 35.3279C23.2409 35.3993 24.1834 35.8019 24.2751 35.724C24.5369 35.0227 24.8379 33.6527 25.2633 33.0814C25.7673 32.3996 27.9861 31.6529 28.3722 31.127C28.6733 30.7179 28.2937 29.5817 28.7518 28.8025C29.3867 27.7247 30.4208 27.8481 30.8921 27.3676C31.0295 27.2248 32.2796 25.1016 32.3516 24.8873C32.9538 23.1018 30.3161 23.7705 29.4718 23.0238C28.9089 22.5239 28.3984 20.2514 28.1235 20.0696C26.16 19.5501 22.4621 21.2123 22.161 18.31Z" fill="#009588"/>
  <path d="M0 26.03C1.08647 22.1018 6.25704 23.3744 7.44169 26.504C10.1121 26.3417 12.5534 28.2181 12.8544 30.8932C13.1359 33.393 12.6188 36.2563 12.933 38.7951L18.2541 44.2037C22.3644 45.0283 25.4667 47.8007 25.7481 52.112C25.9248 54.7611 25.9903 59.3451 25.7481 61.9423C25.6892 62.5721 25.5191 62.8578 24.8187 62.8643L12.3701 62.8058C11.4342 62.5007 12.1214 59.9879 11.8203 59.1763C8.2271 54.891 4.37208 50.7875 1.05375 46.2879L0.530147 45.0867L0.00654503 43.0934V26.03H0ZM23.7584 60.8969V51.7484C23.7584 50.6381 22.6131 48.6903 21.7818 47.9436C20.3223 46.632 18.7973 46.5671 17.0825 45.8529C15.3023 44.1777 13.4631 41.7558 11.5716 40.269C10.7797 39.6391 9.90917 39.4703 9.02559 40.0807C7.80822 40.9247 8.07656 42.1519 8.90124 43.1583C10.7338 45.3854 13.4893 47.3787 15.3939 49.6058C16.0746 50.6706 14.8899 51.6965 13.9147 50.9498L6.92464 43.892C6.39449 43.1323 6.02142 42.2493 5.93634 41.3143C5.54364 37.0615 6.27013 32.2957 5.87743 27.9909C5.92325 26.2897 2.17949 24.238 1.96351 26.5819C2.23185 31.7697 1.62317 37.2822 1.96351 42.4311C2.08132 44.2491 2.74891 45.4373 3.82884 46.8398C6.92464 50.8654 10.7535 54.5663 13.8493 58.6309V60.9034H23.7519L23.7584 60.8969ZM7.91948 28.4843V38.4315C8.82924 37.8861 9.83717 37.6134 10.8909 37.8146C10.7731 35.7564 11.048 33.5228 10.8909 31.4841C10.76 29.7569 9.68664 28.5947 7.91294 28.4843H7.91948Z" fill="#009588"/>
  <path d="M55.4328 26.4972C56.6567 23.1858 62.3705 22.082 62.8811 26.4518C62.5865 31.7435 63.2607 37.4248 62.8811 42.6646C62.7043 45.0929 61.7291 46.5928 60.2761 48.4238C57.3701 52.0793 54.0256 55.5465 51.0607 59.1695C50.7858 59.9227 51.3422 62.2926 50.6746 62.7147L37.5387 62.7601L37.1329 62.0524C37.3162 54.9037 35.1563 45.9435 44.627 44.1904L49.8892 38.8532C50.2884 36.3145 49.7583 33.555 50.007 30.9903C50.2753 28.2503 52.6904 26.3349 55.4328 26.4907V26.4972ZM49.0121 60.8966V58.6241C52.1079 54.5661 55.9368 50.8586 59.0326 46.833C60.1125 45.437 60.767 44.2423 60.8979 42.4243C61.2579 37.2949 60.6099 31.75 60.8979 26.5751C60.839 25.0883 59.1504 25.4648 58.2537 26.0492C57.357 26.6336 57.0036 27.5426 56.9251 28.5425C56.6175 32.6395 57.3047 37.2495 56.9251 41.314C56.8335 42.3204 56.4407 43.2359 55.8124 44.0151L48.6456 51.1443C47.6377 51.4689 46.8981 50.482 47.4675 49.6055C49.3721 47.3784 52.1341 45.3851 53.9602 43.158C54.7849 42.1516 55.0597 40.9245 53.8358 40.0804C52.9522 39.47 52.0883 39.6389 51.2898 40.2687C49.4048 41.7556 47.5591 44.1774 45.7789 45.8526C44.0641 46.5603 42.5391 46.6317 41.0796 47.9433C40.2484 48.69 39.103 50.6443 39.103 51.7481V60.8966H49.0056H49.0121ZM54.955 28.484C53.1879 28.5944 52.1079 29.7632 51.977 31.4838C51.8265 33.5225 52.1014 35.7496 51.977 37.8144C53.0308 37.5806 54.0322 37.8988 54.9485 38.4312V28.484H54.955Z" fill="#009588"/>
</svg>