<svg xmlns="http://www.w3.org/2000/svg" width="89" height="89" viewBox="0 0 89 89" fill="none">
  <g clip-path="url(#clip0_1_2139)">
    <path d="M32.8104 3.44813e-05C34.1796 1.09137 33.2668 2.93534 33.5204 4.32773H38.8959V0.940838C38.8959 0.940838 39.7073 0.225827 39.8087 3.44813e-05H40.9751C42.2936 0.376356 41.3301 4.2901 41.8372 4.36536H47.3141C47.5677 2.97297 46.6548 1.09137 48.0241 3.44813e-05H49.1905C50.8132 1.129 49.9004 2.86008 50.1033 4.32773H55.2759V0.940838C55.2759 0.677413 55.8845 0.150563 56.1887 3.44813e-05H57.3551C58.7244 1.09137 57.8115 2.93534 58.0651 4.32773C62.6292 3.98904 66.1791 6.24697 66.0269 9.70913C66.1791 9.82202 70.0839 9.63386 70.8446 9.70913C72.8224 9.89729 72.366 11.8165 71.301 11.8165H66.0269V15.4668H71.5546C71.8081 15.4668 72.366 16.2948 72.3152 16.5582C72.3152 16.8592 71.4024 17.5366 71.0982 17.5366H66.0776V20.9988H71.3517C72.2645 20.9988 72.7717 23.0685 71.3517 23.0685H66.0776V26.7189H71.3517C72.4167 26.7189 72.8731 28.6005 70.8953 28.8263C70.1346 28.9015 66.2298 28.6757 66.0776 28.8263C66.2298 32.2884 62.6799 34.5463 58.1158 34.2076C57.913 35.3366 59.0793 39.4385 56.0366 38.4225C55.7831 38.3472 55.2759 37.6322 55.2759 37.5945V34.2076H50.1033V37.4064C50.1033 37.6698 49.3933 38.4224 48.9876 38.4977C48.3791 38.6106 47.2634 38.2343 47.2634 37.9332V34.2076H41.6343V37.9332C41.6343 38.2343 40.5187 38.6482 39.9101 38.4977C39.5044 38.4224 38.7944 37.6698 38.7944 37.4064V34.2076H33.4189V37.9332C33.4189 37.9332 32.6583 38.4977 32.354 38.5353C29.7677 38.7988 30.8326 35.299 30.6298 34.17C26.1671 34.4334 22.7187 32.1379 22.9215 28.7886C22.7694 28.6757 18.8645 28.8639 18.1038 28.7886C16.1261 28.6005 16.5825 26.6812 17.6474 26.6812H22.9215V23.0309H17.6474C16.2275 23.0309 16.7346 20.9611 17.6474 20.9611H22.9215V17.499H17.901C17.5967 17.499 16.6839 16.8216 16.6839 16.5205C16.6332 16.2571 17.191 15.4292 17.4446 15.4292H22.9722V11.7789H17.6981C16.6332 11.7789 16.1768 9.89729 18.1546 9.67149C18.9152 9.59623 22.8201 9.82202 22.9722 9.67149C22.8201 6.32223 26.2685 3.98904 30.6805 4.2901C30.934 2.89771 29.9705 0.940838 31.5933 -0.0375977H32.7597L32.8104 3.44813e-05ZM28.9563 6.47276C26.9278 6.81145 25.9135 7.78989 25.7614 9.29517C25.5585 11.2144 25.7614 13.5852 25.7614 15.5421C25.7614 19.8322 25.4064 24.8372 25.7614 29.0897C25.9135 30.9337 27.1306 31.9874 29.6155 32.1379C39.0987 32.7776 49.799 31.6487 59.3836 32.1379C62.0714 31.9497 63.1363 30.8208 63.2378 28.9015C63.3392 26.9823 63.2378 24.9125 63.2378 22.9933C63.2378 18.7032 63.5927 13.6981 63.2378 9.4457C63.0856 7.60173 61.8685 6.54803 59.3836 6.3975C49.7483 5.75775 38.7437 6.84908 29.007 6.43513L28.9563 6.47276Z" fill="#004487"/>
    <path d="M45.8946 59.421H72.4678C74.2934 59.421 77.4883 62.1306 77.4883 63.5229V68.1141H80.9875V58.3673C74.4456 57.5394 73.7863 50.5399 80.1254 48.9593C88.9493 46.739 92.8541 56.7492 83.7766 58.4802V68.1517C85.2473 68.6409 86.6165 69.4312 86.9715 70.6731C87.3265 71.9149 87.2758 76.1297 87.0729 77.5597C86.9715 78.3876 86.5151 79.1403 85.7544 79.7048C85.3994 79.9682 83.5738 80.7585 83.2188 80.7585H77.4883V84.6722C77.4883 86.6291 73.9892 89.0375 71.3014 88.9246H17.445C15.163 89.0375 11.461 86.6291 11.461 85.0109V80.7585H5.73048C5.32478 80.7585 3.39771 79.8929 3.04273 79.6295C2.33276 79.1027 1.92706 78.2747 1.87635 77.5597C1.72421 76.1297 1.62279 71.9525 1.97777 70.6731C2.33276 69.3936 3.70199 68.6409 5.17264 68.1517V58.4802C-2.78918 57.0879 -1.11568 48.2067 7.09971 48.6583C14.6051 49.0722 15.3151 57.3889 7.96182 58.3673V68.1141H11.461V63.3348C11.461 62.0177 14.7573 59.421 16.4815 59.421H43.0547V52.6473C36.9692 51.7065 35.7014 45.4219 41.4319 43.3521C48.0752 40.9813 54.11 46.9272 49.4952 51.0667C48.4809 51.9699 47.2131 52.2333 45.8946 52.7225V59.421ZM43.2575 45.0456C41.1276 45.3843 40.1641 47.3788 40.8741 48.8464C42.2433 51.5936 48.0245 51.1043 48.2781 48.0561C48.4302 45.8358 46.1481 44.5564 43.2575 45.0456ZM6.03475 50.8033C1.6735 51.2549 1.77492 56.0718 6.03475 56.4857C11.8667 57.0502 11.7145 50.2012 6.03475 50.8033ZM79.7197 55.7331C83.5231 58.3673 88.7464 54.0396 85.0444 51.5183C81.3425 48.9969 76.1191 53.2117 79.7197 55.7331ZM15.3151 62.2811C14.9094 62.5821 14.3516 63.41 14.3008 63.8616V84.5593C14.5037 85.8012 16.2279 86.8925 17.9014 86.8925H71.0986C73.3299 86.8172 74.547 85.613 74.7499 84.0325C75.4598 77.635 74.192 70.5225 74.7499 64.0498C74.5977 62.7703 73.1271 61.6037 71.3521 61.5284L16.735 61.679C16.3293 61.9048 15.6701 62.0553 15.3658 62.3187L15.3151 62.2811ZM11.461 70.2215H5.93333C5.4262 70.2215 4.71623 70.9741 4.66552 71.3504C4.41196 72.5547 4.46267 75.9792 4.66552 77.2587C4.66552 77.5974 4.66552 77.8984 5.02051 78.1995C5.12193 78.3124 6.13618 78.7263 6.18689 78.7263H11.461V70.2215ZM83.016 70.2215C81.5453 69.9957 79.1111 70.4096 77.4883 70.2215V78.7263H82.7624C83.5738 78.7263 84.2331 77.8608 84.2838 77.2587C84.4359 76.0168 84.4866 72.517 84.2838 71.3504C84.1823 70.8988 83.5738 70.2967 83.016 70.2215Z" fill="#004487"/>
    <path d="M32.9626 8.54248C40.113 8.9188 48.6327 7.90273 55.631 8.50485C57.8116 8.69301 59.7387 10.0854 59.9415 11.7036C59.3837 16.4829 60.6515 22.1277 59.9415 26.8317C59.688 28.4499 57.8116 29.8799 55.631 30.0304C48.5313 29.6917 40.6202 30.5196 33.6219 30.0304C31.3398 29.8799 29.3113 28.5251 29.0578 26.7941C28.3478 22.0524 29.5649 16.3323 29.0578 11.5154C29.4635 10.0101 30.9848 8.84354 32.9626 8.50485V8.54248ZM33.419 10.6499C32.5062 10.8757 31.9484 11.3649 31.847 12.0799C31.137 16.5205 32.4048 21.9771 31.847 26.5306C31.8977 27.2833 32.7598 27.9607 33.8247 27.9983C40.6202 27.6596 48.227 28.4499 54.921 27.9983C56.1381 27.923 57.0002 27.4714 57.1524 26.5306C56.696 21.9395 57.7102 16.7839 57.1524 12.2681C57.0509 11.4778 56.7467 11.0638 55.7324 10.6875H33.419V10.6499Z" fill="#004487"/>
    <path d="M54.9726 76.6943C57.9646 78.9146 56.4939 82.9413 52.3355 83.7315C50.3577 84.1079 38.4404 84.1079 36.5133 83.7315C30.4785 82.4144 31.0364 75.8664 38.2882 75.4148C40.9253 75.2643 50.7634 75.189 52.8426 75.7159C53.4005 75.8664 54.5162 76.3556 54.9219 76.6943H54.9726ZM52.8426 78.0867C52.3355 77.748 51.372 77.5599 50.7127 77.5222C47.8221 77.2964 40.976 77.2964 38.0854 77.5222C34.1298 77.8609 34.1298 81.4736 38.3389 81.8123C41.1281 82.0381 47.9236 82.0757 50.7127 81.8123C53.5019 81.5489 54.8711 79.4791 52.8934 78.0491L52.8426 78.0867Z" fill="#004487"/>
    <path d="M23.7333 65.9315C30.3259 60.9264 40.012 69.2431 32.6587 73.345C25.914 77.1082 18.0029 70.2968 23.7333 65.9315ZM27.7903 66.6089C22.8712 67.211 24.0376 72.9687 29.3117 72.2537C33.9772 71.6139 32.9123 65.9691 27.7903 66.6089Z" fill="#004487"/>
    <path d="M59.4348 64.5391C68.3601 63.5983 69.9829 73.5708 61.4633 74.3987C52.9436 75.2266 51.0672 65.4423 59.4348 64.5391ZM59.6376 66.6089C54.0086 67.4368 57.2034 74.1729 62.3761 71.915C66.3316 70.2216 63.796 65.9691 59.6376 66.6089Z" fill="#004487"/>
    <path d="M43.7647 21.2246H39.8598C39.8598 21.2246 38.6427 24.0847 37.9835 24.6115C36.7157 25.5523 35.245 24.6115 35.7521 23.4826C37.6792 20.8483 38.592 16.8217 40.5191 14.338C41.4319 13.1714 42.5983 13.51 43.359 14.5637C44.2211 15.768 47.8216 22.4665 48.0245 23.6331C48.1259 24.0847 48.2273 24.3857 47.7202 24.7244C45.641 26.2673 44.3225 22.1278 43.8154 21.2623L43.7647 21.2246ZM42.649 19.1172L41.7362 17.5743L41.0262 19.1549H42.649V19.1172Z" fill="#004487"/>
    <path d="M51.6758 13.5851C52.8929 13.4346 53.2986 14.0743 53.4 14.8646C53.755 17.7999 53.1464 21.1115 53.4 24.0844C53.1464 25.4016 50.8137 25.5145 50.6108 23.7458C50.3573 21.6384 50.3066 16.7462 50.6108 14.714C50.7123 14.1872 50.9658 13.7356 51.7265 13.6227L51.6758 13.5851Z" fill="#004487"/>
  </g>
  <defs>
    <clipPath id="clip0_1_2139">
      <rect width="89" height="89" fill="white"/>
    </clipPath>
  </defs>
</svg>