<svg xmlns="http://www.w3.org/2000/svg" width="63" height="63" viewBox="0 0 63 63" fill="none">
  <path d="M22.3304 29.535V0.460849C22.3304 0.460849 22.6475 0.145397 22.7268 0.0665341L62.0751 0.000814952C62.4715 -0.0123289 62.8679 0.132253 63 0.526568V39.6032C62.9207 39.682 62.63 39.9975 62.6036 39.9975H34.2353L34.0371 40.1946V62.5392C34.0371 62.5392 33.7068 62.8546 33.6143 62.894L1.00465 62.9992C0.608261 63.0123 0.211871 62.8678 0.0797412 62.4734L0.0136762 30.5076C-0.0788147 30.1922 0.317575 29.535 0.608261 29.535H22.3436H22.3304ZM61.4805 1.57807H23.916V29.535H33.4425C33.5086 29.535 34.0371 29.9425 34.0371 29.995V38.4202H61.4937V1.57807H61.4805ZM32.4516 31.1123H1.57281V61.4219H32.4384V31.1123H32.4516Z" fill="#009588"/>
  <path d="M38.937 54.9075L39.1389 55.3043L42.8134 58.6641C43.1633 59.246 42.9614 59.9603 42.2077 60C41.925 60 41.2117 59.3915 40.9559 59.1799C39.3677 57.844 37.8602 56.0848 36.272 54.7091C35.6259 53.8361 36.2182 53.3996 37.1334 53.3203C42.4499 52.8573 48.5337 53.7832 53.8771 53.3203C59.2206 52.8573 56.6094 45.3972 57.4439 42.1697C58.4534 41.7332 58.7899 42.1697 58.8841 43.1221C59.0591 44.8152 59.0591 49.2463 58.7226 50.8468C58.3861 52.4473 56.2729 54.8943 54.5366 54.8943H38.9505L38.937 54.9075Z" fill="#009588"/>
  <path d="M18.2075 13.9907L14.3646 10.221C13.8692 9.36119 14.8467 8.58078 15.6099 9.25537C16.8819 10.9617 19.5733 12.5622 20.7382 14.1891C21.1131 14.7182 21.0998 15.0621 20.6043 15.4986L5.35319 15.5648C3.84013 15.5912 2.11283 16.9404 1.85842 18.4219C1.7513 19.0303 1.71113 20.2075 1.68435 20.8821C1.6174 22.5091 1.92537 24.7709 1.68435 26.2656C1.52367 27.2444 0.224848 27.2841 0.0909483 26.1466C-0.0965108 24.5196 -0.00278123 19.0303 0.452477 17.5621C0.947904 15.9748 3.09029 13.9775 4.8176 13.9775H18.1941L18.2075 13.9907Z" fill="#009588"/>
  <path d="M52.4231 49.3939V42.541C52.4231 42.0592 53.7426 41.5505 53.9186 42.6882C53.7426 44.9904 54.1699 47.7476 53.9186 49.9962C53.8432 50.6922 53.4536 50.8795 52.863 51H44.6191C43.7268 50.8126 43.9028 49.3939 44.4934 49.3939H52.4231Z" fill="#009588"/>
  <path d="M5.69415 26.3827C5.53656 27.1105 4.26266 27.2958 4.14446 26.3827C3.94747 24.9931 3.9606 20.5729 4.13133 19.1569C4.17073 18.8525 4.27579 18.5481 4.51219 18.3629C4.74858 18.1776 5.98308 18.0585 6.41647 18.032C8.37328 17.9262 10.4483 18.1247 12.4182 18.032C13.3901 18.2173 12.9698 19.6069 12.4182 19.6069H5.89115L5.69415 19.8054V26.3827Z" fill="#009588"/>
  <path d="M14.4214 18.0498C14.9681 17.9383 16.3484 17.9543 15.9182 18.7421C15.7479 19.0525 14.5917 19.0446 14.287 18.9172C13.8478 18.7421 13.9284 18.1453 14.4214 18.0418V18.0498Z" fill="#009588"/>
  <path d="M20.7395 18.7484C19.8027 19.0809 16.5778 19.3343 17.0462 17.7983C17.4245 16.5631 22.1447 16.6739 20.7395 18.7484Z" fill="#009588"/>
  <path d="M42.8368 49.2167C43.1345 49.7054 43.0043 50.7154 42.6136 50.9272C42.4369 51.0087 41.6277 51.025 41.4324 50.9598C40.9302 50.7969 40.8744 49.3796 41.2185 49.1352C41.4696 48.956 42.6508 48.9234 42.8368 49.233V49.2167Z" fill="#009588"/>
  <path d="M36.9405 49.0917C37.89 48.9176 39.844 48.886 39.9901 49.9779C40.1544 51.1965 38.237 51.0224 37.2509 50.9433C35.4796 50.8009 35.79 49.2975 36.9405 49.0759V49.0917Z" fill="#009588"/>
  <path d="M51.9994 9.21147L56 15.9353C55.8199 16.9824 54.9709 16.6655 54.212 16.6931L54.1219 27.3437C53.9676 27.6055 53.8132 27.8673 53.5173 27.9224C52.9899 28.0326 50.1214 28.0189 49.5682 27.9224C49.3367 27.8811 49.1437 27.7709 48.9765 27.5917L48.835 16.9135L48.6421 16.7069L47.3171 16.6242C46.8154 16.142 46.9955 15.7286 47.2657 15.1913C47.8059 14.1028 50.0571 10.3413 50.7774 9.50081C51.1762 9.03235 51.4206 8.8119 52.0123 9.19769L51.9994 9.21147ZM50.3786 15.9491V26.2966H52.6812V15.5495C52.6812 15.2877 53.5045 15.1086 53.6974 14.9984L51.3949 11.3609L49.2209 14.9984C49.1952 15.081 50.2243 15.0535 50.3658 15.9628L50.3786 15.9491Z" fill="#009588"/>
  <path d="M41.5081 18.0578C41.8187 17.9632 45.4744 17.9903 45.7013 18.0984C45.8089 18.1524 45.9164 18.3281 46 18.4362L45.9761 27.5304C45.9044 27.6791 45.8089 27.8007 45.6774 27.8682C45.3429 28.0439 41.7948 28.0439 41.4603 27.8682C41.1258 27.6926 41.1019 27.3412 41.0661 26.9629C40.8511 24.3549 41.2453 21.3955 41.0661 18.7605C41.0661 18.4767 41.2811 18.1254 41.5081 18.0578ZM44.6261 19.6388H42.4877V26.3548H44.6261V19.6388Z" fill="#009588"/>
  <path d="M33.6047 22.0622C33.9767 21.9674 37.3256 21.981 37.5698 22.1028C37.7907 22.2111 37.8953 22.4954 37.9302 22.7662C38.0233 23.592 38.0233 26.3944 37.9302 27.2203C37.8721 27.7482 37.6046 27.8972 37.1744 27.9513C36.6395 28.019 33.9186 28.0325 33.5233 27.8836C33.1977 27.7618 33.1047 27.4369 33.0698 27.0713C32.9767 26.1778 32.9767 23.7951 33.0698 22.888C33.1163 22.4548 33.2326 22.1434 33.6163 22.0487L33.6047 22.0622ZM36.5233 23.6462H34.4419V26.3403H36.5233V23.6462Z" fill="#009588"/>
  <path d="M27.7212 5.79495V13.4163C27.5561 14.2777 26.2487 14.1901 26.0835 13.1243C26.2349 10.5984 25.8495 7.76598 26.0697 5.28394C26.111 4.78753 26.3037 4.17432 26.8267 4.05752C27.2946 3.96992 29.8957 3.98452 30.3499 4.08672C31.4646 4.34953 30.8866 5.79495 30.515 5.79495H27.7075H27.7212Z" fill="#009588"/>
  <path d="M33.3963 4.11094C33.9382 3.84471 35.3252 3.96999 34.9302 5.47341C34.7557 6.1155 33.58 6.08418 33.2677 5.83361C32.7992 5.45775 33.0105 4.31453 33.4054 4.11094H33.3963Z" fill="#009588"/>
  <path d="M36.6565 4.09752C37.345 3.92637 38.7356 3.8797 38.9697 4.8288C39.2864 6.13577 37.0283 6.13577 36.4362 5.84015C35.789 5.51341 35.8579 4.29979 36.6703 4.09752H36.6565Z" fill="#009588"/>
  <path d="M22.1421 53.6614C22.0109 53.5052 22.0109 53.2059 22 52.9847L22.0546 42.5608C22.153 42.2485 22.3497 42.1053 22.612 42.0533C23.0383 41.9752 25.235 41.9752 25.5956 42.1053C25.7158 42.1444 25.8251 42.2615 25.9235 42.3656L26 53.4792C25.9563 53.6614 25.847 53.7265 25.7268 53.8045C25.2787 54.0778 22.4699 54.0908 22.1421 53.6744V53.6614ZM24.7213 43.6019H23.3115V52.3991H24.7213V43.6019Z" fill="#009588"/>
  <path d="M15.1721 53.6914C14.8549 53.3232 15.0627 47.3714 15.1174 46.4264C15.183 46.2915 15.2705 46.181 15.3908 46.1197C15.708 45.9601 18.3766 45.9601 18.7047 46.1197C18.825 46.1687 18.9344 46.2792 19 46.3896V53.5932C18.7922 53.8877 18.4422 53.9245 18.136 53.9614C17.6001 54.0227 15.4893 54.0595 15.1721 53.6791V53.6914ZM17.7532 47.5064H16.3424V52.5133H17.7532V47.5064Z" fill="#009588"/>
  <path d="M12.7996 49.2257C13.0406 49.453 13.0138 52.508 12.9736 53.0256C12.9067 53.7325 12.7326 53.884 11.9693 53.9598C11.3131 54.0229 8.59473 54.0607 8.20638 53.682C7.96534 53.4422 7.97873 50.3998 8.0323 49.8822C8.08586 49.4025 8.20638 49.1374 8.76881 49.0616C9.51872 48.9733 11.4738 48.9859 12.2371 49.0616C12.438 49.0869 12.6389 49.0995 12.7996 49.2131V49.2257ZM11.3667 50.5765H9.63924V52.4575H11.3667V50.5765Z" fill="#009588"/>
  <path d="M29 60H25.3708C24.8764 60 24.8764 58.2905 25.3708 58.2905H27.6629V50.7917C27.6629 50.6193 28.0899 50.0304 28.2809 50.0016C28.4719 49.9729 29 50.332 29 50.5044V60Z" fill="#009588"/>
  <path d="M17.5068 58.1111C18.2844 57.8625 20.5081 57.9246 19.8942 59.4319C19.6213 60.0845 17.9024 60.1 17.4249 59.8514C16.811 59.5406 16.8792 58.3131 17.5204 58.1111H17.5068Z" fill="#009588"/>
  <path d="M21.6255 58.0963C22.4548 57.8753 24.4802 57.9227 23.8957 59.4693C23.6374 60.1164 21.8974 60.0848 21.4352 59.8323C20.7691 59.4851 20.8915 58.3015 21.6391 58.0963H21.6255Z" fill="#009588"/>
</svg>