<svg xmlns="http://www.w3.org/2000/svg" width="89" height="89" viewBox="0 0 89 89" fill="none">
  <g clip-path="url(#clip0_1_2112)">
    <path d="M88.9997 28.5334V30.8C87.467 36.9667 79.1367 37.3334 77.3707 31.1334H72.6725C74.3719 34.8667 75.3715 38.8334 75.6381 42.9334H87.2004C88.0001 43.0334 88.5999 43.3 89.033 43.9667V45C88.5332 45.7334 87.9001 45.9667 87.0338 46.0334C83.9016 46.3 77.8039 46.3 74.6718 46.0334C73.7388 45.9334 72.9058 45.7334 72.7058 44.6667C72.5059 43.5334 72.6392 41.9667 72.4726 40.7334C72.1727 38.3334 71.373 35.6 70.44 33.3667C69.8402 31.9667 67.2745 28.6334 70.0068 28.1334C71.2397 27.9 76.9043 28.3334 77.3374 28.0667C79.1701 22.0334 87.467 22.3667 88.9997 28.4334V28.5334ZM82.1689 26.8334C79.3367 27.4 79.4366 32.2 82.7021 32.6667C87.0005 33.2667 87.3004 25.7667 82.1689 26.8334Z" fill="#004487"/>
    <path d="M75.1056 0C77.8046 0.366667 80.1371 3.1 80.1704 5.83333C80.237 12.7667 70.3074 14.1667 68.5081 7.5H57.9121V16.5333C60.6777 17.7 63.5433 19.5667 65.7425 21.6667C66.6421 22.5 67.875 23.4667 66.8754 24.7333C65.5425 26.4 63.6099 23.7 62.5103 22.8333C60.9109 21.5667 59.2116 20.4333 57.4123 19.4333C56.2793 18.8 55.1131 18.9667 54.9798 17.3667C54.6799 14.0333 55.1798 10.2 55.0132 6.8C55.1798 5.76667 56.1461 4.83333 57.1457 4.6H68.2415C68.8413 3.86667 69.0079 3.03333 69.6077 2.26667C70.574 1.03333 71.8069 0.566667 73.2397 0.0666667C73.8394 0.133333 74.5725 0 75.139 0.0666667L75.1056 0ZM73.6395 3.03333C70.0409 3.6 70.5074 9.4 74.6391 8.9C78.4044 8.43333 77.638 2.4 73.6395 3.03333Z" fill="#004487"/>
    <path d="M15.8609 0C17.2937 0.5 18.5265 0.966667 19.4928 2.2C20.0593 2.93333 20.2592 3.8 20.859 4.5H31.9548C32.7545 4.6 34.154 6 34.154 6.7V15.1333C35.5202 14.8667 38.5857 13.3 39.7186 14.3667C40.3184 14.9 40.2184 16.1333 39.552 16.6L32.8545 18.8C32.2214 18.9667 31.2218 18.0333 31.2218 17.5V7.5H20.6258C20.1593 9.6 18.2267 11.4333 16.1274 11.7667C8.89681 12.9 6.13118 3.66667 12.4288 0.5L13.9283 0H15.8276H15.8609ZM14.4281 3.03333C10.5295 3.66667 11.4292 9.63333 15.561 8.86667C19.0597 8.23333 18.26 2.43333 14.4281 3.03333Z" fill="#004487"/>
    <path d="M88.9996 60.3C87.5002 66.5667 79.3033 66.9 77.2374 60.8C75.0382 60.6333 72.4725 61.0333 70.3066 60.8C69.2737 60.7 68.6073 60.1333 68.7406 59.0667C69.4403 57.5 70.2733 56.0333 70.8731 54.4333C71.3729 53.0333 71.6728 51.0667 72.2059 49.8667C72.9057 48.3 75.0715 48.8667 75.0715 50.4667C75.0715 52.5667 73.3388 55.8667 72.6391 57.8667H77.3373C78.7035 52.6667 85.5009 51.7667 88.2666 56.4333L88.9996 58.4V60.3ZM82.702 56.3667C78.9034 56.9 79.3366 63.0333 83.8349 62.2C87.3003 61.5667 86.334 55.8667 82.702 56.3667Z" fill="#004487"/>
    <path d="M45.0497 1.62721e-05C45.7161 0.43335 46.016 1.03335 46.0826 1.83335V13.3667C46.3492 13.6334 50.481 13.5 51.3806 14.2333C52.147 14.8667 52.0804 16.2 51.214 16.6667C50.4476 17.1 47.582 16.4333 46.5158 16.3C44.6498 16.1 43.1837 16.9333 42.9505 14.3C42.5839 10.3333 43.217 5.83335 42.9505 1.76668C43.0504 0.966683 43.317 0.400016 43.9834 -0.0666504H45.0163L45.0497 1.62721e-05Z" fill="#004487"/>
    <path d="M42.5507 19.3666C63.243 17.8333 76.8379 40.3999 65.7753 58.0333C55.7124 74.0666 31.7214 73.3666 22.5249 56.8333C13.3283 40.2999 24.2909 20.6999 42.5507 19.3666ZM28.7559 60.2666C40.2183 71.7333 59.9109 67.2999 65.4088 52.1333C72.0063 33.8333 53.5466 16.3999 35.6533 24.1333C21.3586 30.3333 17.6934 49.2333 28.7559 60.2999V60.2666Z" fill="#004487"/>
    <path d="M20.5256 81.5H31.1216V72.7333C29.8221 71.8 28.3227 71.1667 26.9899 70.2667C25.657 69.3667 24.1576 68.2 23.0247 67.1C22.125 66.2333 19.4927 63.9667 20.8588 62.6667C22.4582 61.1667 23.9577 63.9333 25.0239 64.9333C26.6566 66.4667 28.6892 67.9 30.6551 69.0333C31.9213 69.7667 33.9539 70.1 34.0872 71.7C34.3204 74.2333 34.3204 79.2333 34.0872 81.8C33.9539 83.1333 33.2542 84 32.0546 84.4333L20.8255 84.5C20.0258 85.6333 19.7592 86.7667 18.6263 87.6667C13.8281 91.4667 7.16395 86.5667 9.36313 80.8333C11.3291 75.6333 19.2594 76.0667 20.5589 81.5333L20.5256 81.5ZM14.228 80.1667C11.2291 80.6667 11.0292 85.3 14.2613 85.9667C18.7596 86.8667 19.0928 79.3667 14.228 80.1667Z" fill="#004487"/>
    <path d="M57.8788 72.4667V81.5H68.4748C69.9742 75.6333 78.5044 75.7 79.9039 81.6333C81.1034 86.8333 75.5055 90.8667 70.9406 88C69.4411 87.0667 69.1079 85.8667 68.2082 84.4667H57.1124C55.9128 84.1 55.0798 83.1667 54.9132 81.9333C54.6467 79.5667 54.68 74.1 54.9132 71.6667C55.0465 70.0667 56.2461 70.2333 57.3456 69.6C59.145 68.6 60.8443 67.4667 62.4437 66.2C63.5433 65.3333 65.3093 62.8 66.7088 64.2C67.8417 65.3333 66.4756 66.5667 65.6759 67.3333C63.51 69.4 60.6444 71.3 57.8455 72.4667H57.8788ZM73.4729 80.1666C70.0409 80.7333 70.7073 86.4333 74.4392 86.0333C78.3711 85.6 77.7713 79.4667 73.4729 80.1666Z" fill="#004487"/>
    <path d="M27.7899 19.7333C29.4226 21.3666 26.2572 22.9666 25.2575 23.9333C23.9247 25.1666 22.8251 26.6 21.7255 28.0333C20.8592 29.1666 20.2927 31 18.76 31.1333C17.727 31.2333 12.0292 30.9666 11.7293 31.1333C9.49677 38.9 -1.99893 35.5333 0.366851 27.8333C2.13286 22.1 10.1965 22.6 11.8292 28.1333C13.5952 27.9 16.2276 28.4333 17.8936 28.1333C18.3934 28.0333 18.66 27.1666 18.9599 26.7666C20.5593 24.5666 22.4253 22.2666 24.5911 20.5666C25.4575 19.8666 26.7236 18.5666 27.8232 19.6666L27.7899 19.7333ZM5.19837 26.8333C2.33278 27.3666 2.26614 31.8666 5.26502 32.5666C9.73001 33.6333 10.3964 25.8666 5.19837 26.8333Z" fill="#004487"/>
    <path d="M16.361 57.8666C15.6613 55.8666 13.9619 52.5333 13.9286 50.4666C13.9286 48.9 16.0278 48.3666 16.7275 49.7666C17.2607 50.8 17.6272 53.1333 18.127 54.4333C18.7268 56.0333 19.5265 57.5333 20.2595 59.0666C20.3595 60.3 19.5931 60.7 18.5268 60.8C16.3943 61 13.9619 60.6333 11.7627 60.8C9.96339 67.0666 0.466943 66.4 0.000450805 59.8666C-0.532683 52.5666 9.76346 50.8666 11.6294 57.8666H16.3277H16.361ZM5.56503 56.3666C2.33291 56.8333 2.16631 61.7666 5.36511 62.2333C10.2633 62.9333 9.76346 55.7666 5.56503 56.3666Z" fill="#004487"/>
    <path d="M46.0832 75.6V87.3C45.7167 89.7 43.0843 89.4667 42.951 87.1334V75.6C41.5516 75.2 36.82 75.7334 37.0533 73.4334C37.0533 73.1667 37.3865 72.5334 37.5864 72.3667C38.3528 71.7334 41.7182 72.5667 42.8844 72.6334C43.984 72.7 45.4501 72.7 46.5497 72.6334C48.1824 72.5334 52.5141 70.9667 51.8144 74.0667C51.4812 75.5667 47.3827 75.2667 46.1165 75.6H46.0832Z" fill="#004487"/>
    <path d="M13.4281 42.9334C13.728 40.8334 13.9613 36.0334 15.1608 34.3334C16.0272 33.1001 17.8265 33.7001 17.7932 35.3667C17.7598 36.7001 16.7935 39.1334 16.5936 40.7667C16.427 42.0001 16.5603 43.6001 16.3604 44.7001C16.1604 45.7334 15.3607 45.9667 14.3944 46.0667C11.4289 46.3334 4.79803 46.4001 1.8658 46.0667C-0.599947 45.8001 -0.599947 43.2667 1.69919 42.9667H13.3948L13.4281 42.9334Z" fill="#004487"/>
    <path d="M52.0137 37C54.013 37.1667 56.0455 38.7 56.3121 40.7667C56.9119 45.2667 55.9122 50.9 56.3121 55.5334C56.0122 57.5 54.4128 59.1 52.4136 59.2667C47.3488 59.7334 41.5843 58.9 36.4195 59.2667C34.4536 58.9667 32.9875 57.5 32.6876 55.5334C33.1208 50.9334 32.1212 45.2667 32.6876 40.7667C32.9542 38.7 34.9868 37.1667 36.986 37C36.986 34.7 36.8527 32.5334 38.0189 30.4667C40.7179 25.6 47.782 25.4 50.7475 30.1334C52.0803 32.3 51.9804 34.5 51.9804 37H52.0137ZM49.0148 37.0334V33.8334C49.0148 31.5 46.4824 29.6334 44.2166 29.7334C42.1841 29.8334 39.9516 31.7334 39.9516 33.8334V37.0334H48.9815H49.0148ZM36.986 40.0334C36.2196 40.2 35.7198 40.6667 35.6532 41.4667C35.1534 45.6334 36.0197 50.7334 35.6532 55.0334C35.6532 55.6 36.0197 56.0667 36.5195 56.2667H52.5135L53.2799 55.5V41.0667C52.9467 40.2667 52.3469 40.1 51.5472 40.0334C46.9489 39.6 41.6509 40.3334 36.986 40.0667V40.0334Z" fill="#004487"/>
    <path d="M44.1168 43C48.082 42.6666 50.4478 47.4 47.8821 50.4C47.3489 51.0333 46.4493 51.2666 46.1494 51.6333C45.6829 52.2 45.9494 53.3333 44.5833 53.3666C43.0505 53.4333 43.3504 52.2333 42.8506 51.6333C42.584 51.3 41.6844 51.0333 41.2179 50.5C38.7855 47.8 40.4848 43.3 44.1501 43H44.1168ZM43.9502 46.1C42.7506 46.4666 42.7506 48.8666 44.45 48.9666C46.6159 49.0666 46.3493 45.3666 43.9502 46.1Z" fill="#004487"/>
  </g>
  <defs>
    <clipPath id="clip0_1_2112">
      <rect width="89" height="89" fill="white"/>
    </clipPath>
  </defs>
</svg>