<svg width="41" height="42" viewBox="0 0 41 42" fill="none" xmlns="http://www.w3.org/2000/svg">
<path d="M27.7334 12.6045H27.7529C28.2874 12.6045 28.7492 13.0279 28.8008 13.5986L28.8057 13.7139C28.8009 14.3297 28.3077 14.8189 27.7217 14.8203C27.1737 14.812 26.722 14.3862 26.6709 13.8252L26.666 13.7109C26.6702 13.0851 27.159 12.6045 27.7334 12.6045Z" fill="white" stroke="white"/>
<path d="M20.3486 8.28027C22.1744 8.28028 24.0109 8.31838 25.4355 8.37207L26.707 8.42969H26.708C28.299 8.51554 29.7353 9.00853 30.9238 10.0684L31.1582 10.2881C32.2606 11.3702 32.8638 12.7073 33.0635 14.2422L33.0986 14.5518C33.1932 15.5806 33.273 18.5756 33.2529 21.6191C33.2429 23.1377 33.2085 24.66 33.1387 25.9443C33.068 27.2437 32.9633 28.2558 32.8262 28.7842C32.4404 30.2376 31.7936 31.3634 30.9111 32.1826C30.0842 32.9501 29.025 33.4716 27.7197 33.7266L27.4551 33.7744H27.4541C26.3736 33.9525 23.3699 34.0664 20.3213 34.0664C18.7703 34.0664 17.2237 34.0362 15.9375 33.9727C14.7951 33.9162 13.8973 33.8345 13.3809 33.7324L13.1836 33.6875H13.1826C11.7784 33.3158 10.6854 32.6695 9.88867 31.7764C9.14151 30.9388 8.63229 29.8588 8.3877 28.5244L8.3418 28.2539V28.2529L8.28223 27.7539C8.15125 26.3822 8.07852 23.6211 8.10156 20.8213C8.11466 19.2304 8.1585 17.6425 8.23828 16.3135C8.30901 15.1354 8.40665 14.1982 8.52539 13.6396L8.57715 13.4238C8.97175 12.0131 9.61998 10.9219 10.4932 10.127C11.3113 9.38207 12.351 8.87526 13.6211 8.62207L13.8779 8.5752C15.1594 8.36016 17.7174 8.28027 20.3486 8.28027ZM20.7861 9.70703C18.5091 9.70703 16.2201 9.76257 14.8984 9.86328L14.3945 9.90918L14.3906 9.91016C13.1583 10.0555 12.0982 10.5219 11.2949 11.292C10.5416 12.0143 10.039 12.9792 9.81738 14.1309L9.77734 14.3633V14.3652C9.58295 15.6402 9.49109 18.5972 9.48047 21.4307C9.47119 23.9067 9.52295 26.3661 9.63477 27.5928L9.68652 28.0391C9.84265 29.0742 10.2113 29.9769 10.8174 30.6992C11.3491 31.3329 12.0459 31.8075 12.8965 32.1123L13.2705 32.2324C13.8427 32.3967 14.9152 32.4965 16.1641 32.5586C17.4343 32.6217 18.9481 32.6475 20.4424 32.6475C22.8419 32.6475 25.2233 32.5795 26.4805 32.4844L26.9473 32.4424C28.1917 32.3022 29.2562 31.8345 30.0605 31.0586C30.8647 30.2829 31.3792 29.2281 31.5752 27.9648L31.5742 27.9639C31.7683 26.7401 31.8626 23.9647 31.8828 21.2568C31.9005 18.8796 31.8619 16.4961 31.7783 15.1787L31.7393 14.6816V14.6807L31.7119 14.4453C31.5563 13.2801 31.1211 12.2804 30.418 11.5117C29.7135 10.7417 28.7658 10.231 27.6328 10.0068L27.4043 9.96582H27.4014C26.2289 9.78324 23.4755 9.70704 20.7861 9.70703Z" fill="white" stroke="white"/>
<path d="M20.7314 14.8101H20.7324C24.0333 14.8101 26.7346 17.4744 26.876 20.8521L26.8818 21.1812C26.8559 24.7043 24.0417 27.5481 20.6201 27.5483C17.3097 27.5483 14.6172 24.8855 14.4766 21.5073L14.4707 21.1782C14.4967 17.7534 17.139 14.9788 20.4121 14.8179L20.7314 14.8101ZM20.46 16.2378C17.997 16.3648 16.0092 18.3698 15.8457 20.8716L15.835 21.1235C15.7933 23.7564 17.7784 25.9524 20.3428 26.1089L20.5928 26.1177H20.6357C23.2121 26.1176 25.329 24.0623 25.498 21.4771L25.5088 21.2251C25.5514 18.5812 23.5647 16.3955 21.001 16.2397L20.752 16.231H20.708L20.46 16.2378Z" fill="white" stroke="white"/>
<rect x="0.5" y="0.5" width="39.5153" height="40.5041" rx="9.5" stroke="white"/>
</svg>
