<svg width="41" height="42" viewBox="0 0 41 42" fill="none" xmlns="http://www.w3.org/2000/svg">
<path d="M23 10.0127C23.315 10.0127 23.6309 10.0213 23.9492 10.0332L24.9121 10.0742H24.9141C25.1641 10.0842 25.4098 10.1095 25.6611 10.1377L25.6387 12.9482C25.4904 12.9478 25.3418 12.9482 25.1924 12.9473C24.98 12.9459 24.7655 12.9443 24.5508 12.9443C24.39 12.9443 24.2281 12.9451 24.0654 12.9473L23.5762 12.958C23.0208 12.9762 22.4492 13.0871 22.0029 13.4355C21.5929 13.7558 21.3541 14.2243 21.2803 14.8232L21.2588 15.0889V15.0908C21.2255 15.9947 21.2015 17.9819 21.2002 18.082L21.1934 18.5889H21.7002C21.7262 18.5889 21.9911 18.5898 22.3809 18.5908C22.7692 18.5918 23.2789 18.5928 23.79 18.5928L25.1533 18.5889H25.4014C25.2447 19.6854 25.0949 20.7473 24.9385 21.8125H21.2051L21.2012 22.3086L21.1221 32.3584H17.6123L17.6914 22.2998L17.6953 21.7959H14.0078L14.0332 18.5967H17.7373L17.7412 18.1006L17.7441 17.7852C17.7511 16.9246 17.7398 16.0979 17.7725 15.2617L17.2734 15.2422L17.7734 15.2617V15.2549C17.7863 14.7313 17.8153 14.2153 17.9062 13.7236L17.9053 13.7227C18.1343 12.5475 18.6886 11.5932 19.6748 10.9072C20.4402 10.3781 21.3049 10.1111 22.2441 10.0371L22.6514 10.0166H22.6553C22.7678 10.0135 22.8819 10.0127 23 10.0127Z" fill="white" stroke="white"/>
<rect x="0.5" y="0.5" width="39.5153" height="40.5041" rx="9.5" stroke="white"/>
</svg>
