<svg width="41" height="42" viewBox="0 0 41 42" fill="none" xmlns="http://www.w3.org/2000/svg">
<rect x="0.5" y="0.5" width="39.5153" height="40.5041" rx="9.5" stroke="white"/>
<path d="M7.21046 15.3396H12.8926V34.0267H7.21046V15.3396ZM10.0434 6.05469C11.861 6.05469 13.3348 7.56442 13.3348 9.41804C13.3348 11.2717 11.861 12.7898 10.0434 12.7898C8.22572 12.7898 6.75195 11.2801 6.75195 9.41804C6.75195 7.55604 8.22572 6.05469 10.0434 6.05469Z" fill="white"/>
<path d="M16.4473 15.3363H21.8838V17.8945H21.9575C22.719 16.4267 24.5693 14.875 27.3286 14.875C33.0681 14.875 34.1324 18.7416 34.1324 23.7741V34.0235H28.4666V24.9399C28.4666 22.7676 28.4257 19.9829 25.5191 19.9829C22.6125 19.9829 22.1131 22.3398 22.1131 24.7805V34.0235H16.4473V15.3363Z" fill="white"/>
</svg>
